<svg xmlns="http://www.w3.org/2000/svg" xmlns:xlink="http://www.w3.org/1999/xlink" viewBox="0 0 74.38 74.38"><defs><style>.cls-1{fill:none;}.cls-2{clip-path:url(#clip-path);}.cls-3{fill:url(#Degradado_sin_nombre_2);}.cls-4{clip-path:url(#clip-path-2);}.cls-5{fill:#b5e0f2;}</style><clipPath id="clip-path" transform="translate(0 0)"><rect class="cls-1" width="74.38" height="74.38" rx="14.88"/></clipPath><linearGradient id="Degradado_sin_nombre_2" x1="-8562.52" y1="-12651.67" x2="-8561.52" y2="-12651.67" gradientTransform="translate(-2023582.08 1369564.2) rotate(90) scale(159.95)" gradientUnits="userSpaceOnUse"><stop offset="0" stop-color="#006684"/><stop offset="1" stop-color="#20254a"/></linearGradient><clipPath id="clip-path-2" transform="translate(0 0)"><rect class="cls-1" x="6.68" y="6.68" width="61.02" height="61.02"/></clipPath></defs><g id="Capa_2" data-name="Capa 2"><g id="Capa_1-2" data-name="Capa 1"><g class="cls-2"><rect class="cls-3" width="74.38" height="74.38"/></g><g class="cls-4"><path class="cls-5" d="M37.19,6.68A30.51,30.51,0,1,0,67.7,37.19,30.55,30.55,0,0,0,37.19,6.68M66.82,37.19a29,29,0,0,1-.18,3.24H62.45c-7.81,0-14.46-4.58-16.92-10.95,1.45.17,2.83.29,4.15.35a15.3,15.3,0,0,0,12.79,6.6h4.34c0,.25,0,.51,0,.76M61.39,54.27a11.85,11.85,0,0,1-3.47-1.68l-.23-.16-.22.16a11.29,11.29,0,0,1-13.23,0L44,52.43l-.23.16a11.28,11.28,0,0,1-13.22,0l-.23-.16-.23.16a11.29,11.29,0,0,1-13.23,0l-.23-.16-.22.16A12.06,12.06,0,0,1,13,54.22a30.57,30.57,0,0,1-2.26-3.77H12a28.25,28.25,0,0,0,6.94-.87,12.13,12.13,0,0,0,11.41-1.23,12.24,12.24,0,0,0,6.94,2.12A12,12,0,0,0,44,48.35a12.18,12.18,0,0,0,6.85,2.12,12,12,0,0,0,4.6-.91,27.82,27.82,0,0,0,7,.89h1.21a30.52,30.52,0,0,1-2.29,3.81Zm-3,3.64-.42-.27-.22-.17-.23.17a11.34,11.34,0,0,1-13.23,0L44,57.47l-.23.17a11.32,11.32,0,0,1-13.22,0l-.23-.16-.23.16a11.34,11.34,0,0,1-13.23,0l-.22-.16-.23.15-.4.26a29.45,29.45,0,0,1-2.57-3,13.08,13.08,0,0,0,3.19-1.5,12.06,12.06,0,0,0,13.69,0,12.24,12.24,0,0,0,6.94,2.12A12,12,0,0,0,44,53.39a12.06,12.06,0,0,0,13.69,0,12.13,12.13,0,0,0,3.2,1.55,30.24,30.24,0,0,1-2.56,3Zm-.57.57a29.85,29.85,0,0,1-9.26,6.09,11.5,11.5,0,0,1-4.27-1.89L44,62.52l-.23.16a11.28,11.28,0,0,1-13.22,0l-.23-.16-.23.16a11.31,11.31,0,0,1-4.23,1.89,29.71,29.71,0,0,1-9.28-6.11l.05,0a12.09,12.09,0,0,0,13.69,0,12.22,12.22,0,0,0,6.94,2.12A12,12,0,0,0,44,58.44a12.11,12.11,0,0,0,13.69,0l.07.05ZM7.56,37.19c0-.25,0-.51,0-.76h4.36A15,15,0,0,0,26,27.36a3.77,3.77,0,0,0,.19-.64c1.1,0,2.22.12,3.37.23,0,.27-.06.41-.06.41C27.83,34.81,20.59,40.43,12,40.43H7.74a31.66,31.66,0,0,1-.17-3.24ZM63,22.72c-.26.12-.52.21-.52.21-6.27,2.22-14.11,2.16-25.39-.17-10-2.07-18.93-1.9-25.24.44a6.69,6.69,0,0,0-1,.45A29.74,29.74,0,0,1,14,18.74c6-1.68,14.2-1.64,23,.18a75.59,75.59,0,0,0,15,1.8,33.79,33.79,0,0,0,9-1.1,28.74,28.74,0,0,1,2,3.1ZM11.88,24C18,21.69,27.1,21.5,37,23.53a75,75,0,0,0,15,1.81,32,32,0,0,0,10.5-1.57c.3-.1.63-.24.9-.36a27.78,27.78,0,0,1,1.37,3,8.57,8.57,0,0,1-2.27,1.13c-6.25,2.18-14.06,2.11-25.28-.21-10.06-2.08-19-1.9-25.35.48a18.51,18.51,0,0,0-3.27,1.59,30.42,30.42,0,0,1,1.64-4.52A12.29,12.29,0,0,1,11.88,24ZM66.15,31H62.46a11.08,11.08,0,0,1-5.38-1.37,29,29,0,0,0,5.43-1.22,10,10,0,0,0,2.56-1.21A30.09,30.09,0,0,1,66.15,31m-29,13.69a11.37,11.37,0,0,1-6.25-1.88,22.73,22.73,0,0,0,6.29-11.62,22.73,22.73,0,0,0,6.25,11.58,11.34,11.34,0,0,1-6.29,1.92ZM44,43.3l0,0a26,26,0,0,0,10.12,5.9,11.16,11.16,0,0,1-3.31.5,11.42,11.42,0,0,1-6.61-2.13L44,47.39l-.23.16a11.32,11.32,0,0,1-13.22,0l-.23-.16-.23.16a11.24,11.24,0,0,1-9.88,1.65,26.07,26.07,0,0,0,10.14-5.88,12.19,12.19,0,0,0,6.91,2.11A12.05,12.05,0,0,0,44,43.31ZM11.88,28.63a30.28,30.28,0,0,1,8.55-1.8,2.21,2.21,0,0,1-.32.53A10.91,10.91,0,0,1,11.93,31H8.23l.12-.55a22.63,22.63,0,0,1,3.54-1.77ZM8.07,31.74h3.86a11.59,11.59,0,0,0,9.19-4.38,1.52,1.52,0,0,0,.3-.6c1.28-.08,2.61-.1,4-.06a5.7,5.7,0,0,1-.23.66,14.24,14.24,0,0,1-13.23,8.28H7.61a27.88,27.88,0,0,1,.46-3.9ZM12,41.21c9.08,0,16.67-6,18.35-13.85a2,2,0,0,0,.05-.34c.94.11,1.9.23,2.87.37-1,9.94-10.16,17.75-21.29,17.75H8.65a28.52,28.52,0,0,1-.81-3.93Zm0,4.72c11.52,0,21-8.1,22.06-18.41.93.15,1.86.32,2.81.51-.63,12-11.51,21.63-24.82,21.63H10.32a30,30,0,0,1-1.44-3.73Zm50.53,3.73c-13.25,0-24.09-9.52-24.81-21.46,1,.2,2,.39,2.92.55,1.65,9.72,10.83,17.18,21.89,17.18h3a30,30,0,0,1-1.44,3.73Zm0-4.52c-10.57,0-19.36-7-21.07-16.25,1.13.19,2.21.35,3.27.48,2.45,6.87,9.49,11.84,17.78,11.84h4.1a28.52,28.52,0,0,1-.81,3.93Zm0-9.5a14.6,14.6,0,0,1-11.8-5.77l1.46,0c1.28,0,2.51-.06,3.69-.16a11.84,11.84,0,0,0,6.65,2h3.85a29.46,29.46,0,0,1,.47,3.9ZM52.06,11.58a29.13,29.13,0,0,1,5.08,3.73c-5.36.72-11.86.19-20.07-1.56A61.23,61.23,0,0,0,21.14,12.3a29.61,29.61,0,0,1,8.18-3.67,71.59,71.59,0,0,1,7.59,1.14A75,75,0,0,0,52,11.58Zm-1.48-.81A79.33,79.33,0,0,1,37.07,9q-2.77-.57-5.41-.92a29.57,29.57,0,0,1,18.92,2.69Zm-30.71,2.4a59.13,59.13,0,0,1,17,1.35,74.07,74.07,0,0,0,15.29,1.89A37.45,37.45,0,0,0,57.87,16,28.59,28.59,0,0,1,60.52,19c-5.93,1.54-13.26,1.28-23.34-.8-8.53-1.77-16.27-1.91-22.27-.46a29.15,29.15,0,0,1,5-4.52m7.24,51.88a12.31,12.31,0,0,0,3.22-1.57,12.24,12.24,0,0,0,6.94,2.12A12,12,0,0,0,44,63.48a12.31,12.31,0,0,0,3.25,1.57,29.53,29.53,0,0,1-20.14,0Z" transform="translate(0 0)"/></g></g></g></svg>