<svg xmlns="http://www.w3.org/2000/svg" viewBox="0 0 494.94 494.6"><defs><style>.cls-1{fill:#045a7f;}</style></defs><g id="Capa_2" data-name="Capa 2"><g id="Capa_1-2" data-name="Capa 1"><path class="cls-1" d="M247.47,0C111,0,0,110.94,0,247.3S111,494.6,247.47,494.6,494.94,383.67,494.94,247.3,383.93,0,247.47,0M487.79,247.3a239.4,239.4,0,0,1-1.44,26.24h-34c-63.32,0-117.29-37.11-137.2-88.73q17.58,2,33.65,2.83c21.36,32,59.8,53.51,103.69,53.51h35.25q.07,3.07.07,6.15m-44,138.43a94,94,0,0,1-28.1-13.57l-1.86-1.31-1.85,1.31a91.81,91.81,0,0,1-107.31,0l-1.85-1.31-1.84,1.31a91.87,91.87,0,0,1-107.29,0l-1.85-1.31L190,372.16a91.81,91.81,0,0,1-107.34,0l-1.82-1.29L79,372.13A98.4,98.4,0,0,1,50.9,385.3a240.7,240.7,0,0,1-18.3-30.52H42.92a225.67,225.67,0,0,0,56.29-7.09,98.11,98.11,0,0,0,92.59-9.93A99.38,99.38,0,0,0,248.12,355a97.11,97.11,0,0,0,54.66-17.18A98.76,98.76,0,0,0,358.3,355a97.67,97.67,0,0,0,37.38-7.42,225.34,225.34,0,0,0,56.79,7.23l9.82.09a240.93,240.93,0,0,1-18.54,30.86M419,415.3s-28.91,15.06-60.73,15.06-42.55-9.41-53.67-17.31l-1.85-1.31-1.84,1.31a91.87,91.87,0,0,1-107.29,0l-1.85-1.31L190,413.05a91.51,91.51,0,0,1-53.66,17.31s-28.38,1.05-60.57-15.26a240.76,240.76,0,0,1-20.87-24.33,104.55,104.55,0,0,0,25.89-12.15,98.11,98.11,0,0,0,111.05,0,99.38,99.38,0,0,0,56.32,17.19,97.11,97.11,0,0,0,54.66-17.18,98.19,98.19,0,0,0,111,0,100.05,100.05,0,0,0,25.94,12.55A244,244,0,0,1,419,415.3m-12,11.45a241.1,241.1,0,0,1-67.75,42.49,94,94,0,0,1-34.62-15.3l-1.85-1.31-1.84,1.31a91.87,91.87,0,0,1-107.29,0l-1.85-1.31L190,453.94a93.26,93.26,0,0,1-34.32,15.28,241.07,241.07,0,0,1-66.72-41.61,3.49,3.49,0,0,1-.57-.6l.19.13c18.42,9.27,47.76,9.61,47.76,9.61a97.43,97.43,0,0,0,55.5-17.21,99.38,99.38,0,0,0,56.32,17.19,97.11,97.11,0,0,0,54.66-17.18c12,8.13,20.36,17.2,55.52,17.2s48.7-10,48.7-10M7.15,247.3q0-3.08.08-6.15H42.54c52.53,0,97.25-30.72,114.24-73.53a29.38,29.38,0,0,0,1.57-5.18q13.36.51,27.29,1.83a27,27,0,0,1-.51,3.35C171.56,228,112.84,273.54,42.69,273.54H8.59A241.91,241.91,0,0,1,7.15,247.3M457.11,130c-2.14,1-4.22,1.73-4.22,1.73-50.88,17.92-114.49,17.48-206-1.4-81.18-16.76-153.55-15.43-204.73,3.56a50.75,50.75,0,0,0-8.44,3.66A241.13,241.13,0,0,1,59.61,97.71c48.68-13.61,115.14-13.25,186.46,1.48,47.3,9.76,87.29,14.64,122,14.64,27.13,0,51.05-3,72.75-8.93A240.31,240.31,0,0,1,457.11,130M42.19,140.71c49.55-19.08,123.43-20.63,203.44-4.11,47.29,9.76,87.28,14.64,122,14.64,32.43,0,60-4.13,85.23-12.74,2.41-.83,5.09-2,7.25-2.93a239.22,239.22,0,0,1,11.11,24.17C464.89,165,452.88,169,452.88,169c-50.71,17.62-114.1,17.07-205.08-1.71-81.64-16.86-154.37-15.42-205.61,3.89-9.71,3.23-20.6,9.3-26.54,12.83A237.48,237.48,0,0,1,29,147.35a98,98,0,0,1,13.21-6.64m440.22,56H452.47a90.64,90.64,0,0,1-43.68-11,236.08,236.08,0,0,0,44.1-10c11-3.67,17.39-7.4,20.7-9.75a238.33,238.33,0,0,1,8.82,30.75m-235.06,111a92.3,92.3,0,0,1-50.64-15.21c25.79-25.91,43.9-58.32,51-94.21,7.07,35.74,25.05,68,50.67,93.88a91.41,91.41,0,0,1-51,15.54m55.43-10.79.26-.18a211.66,211.66,0,0,0,82.09,47.83,91.19,91.19,0,0,1-26.83,4.05,92.51,92.51,0,0,1-53.67-17.31L302.78,330l-1.84,1.31a91.87,91.87,0,0,1-107.29,0L191.8,330,190,331.27a91.78,91.78,0,0,1-80.15,13.4A211.92,211.92,0,0,0,192,297a99.49,99.49,0,0,0,56.1,17,97.11,97.11,0,0,0,54.66-17.18M42.19,177.94c19.61-7.68,43.11-12.57,69.33-14.66a16.43,16.43,0,0,1-2.61,4.34c-15.62,17.7-39.55,29.08-66.37,29.08h-30q.48-2.2,1-4.41c10.81-7.32,28.67-14.35,28.67-14.35M11.25,203.09H42.54c30.79,0,58-14.05,74.61-35.47a11.86,11.86,0,0,0,2.39-4.89c10.38-.59,21.15-.75,32.24-.49a45.65,45.65,0,0,1-1.88,5.38c-16.73,39.22-58.49,67.14-107.36,67.14H7.48a237.39,237.39,0,0,1,3.77-31.67m31.44,76.84c73.73,0,135.28-48.4,148.92-112.31a18.66,18.66,0,0,0,.37-2.7q11.47,1.22,23.25,3c-8,80.52-82.37,143.84-172.69,143.84H16a237.72,237.72,0,0,1-6.57-31.82Zm-.15,38.21c93.49,0,170.42-65.66,179-149.24q11.28,1.83,22.76,4.15c-5.07,97.44-93.34,175.33-201.35,175.33H29.51a237.25,237.25,0,0,1-11.69-30.24Zm409.93,30.25c-107.49,0-195.42-77.15-201.26-173.94q12.15,2.45,23.65,4.46c13.41,78.75,87.89,139.23,177.61,139.23h24.65a239.43,239.43,0,0,1-11.68,30.25Zm0-36.64c-85.73,0-157-57.05-171-131.7,9.15,1.52,18,2.81,26.55,3.9,19.83,55.64,77,96,144.26,96h33.24A239.32,239.32,0,0,1,479,311.75Zm0-77c-39.9,0-75.06-18.62-95.72-46.81,4,.12,7.93.19,11.79.19,10.43,0,20.38-.45,29.92-1.34a96.36,96.36,0,0,0,54,16.29H483.7a240.72,240.72,0,0,1,3.77,31.67ZM368.12,39.67a242,242,0,0,1,41.2,30.26c-43.52,5.82-96.22,1.58-162.86-12.65-46.61-10-90.53-13.81-129.21-11.73a239.46,239.46,0,0,1,66.38-29.78A565.22,565.22,0,0,1,245.19,25c47.3,9.77,87.29,14.65,122,14.65l.89,0m-12-6.55c-31.67-.91-67.72-5.68-109.63-14.33q-22.44-4.63-43.9-7.42A240.4,240.4,0,0,1,356.11,33.12M107,52.59c40.53-3.42,87.7.16,138.15,10.93,47.77,10.21,88.54,15.33,124,15.33a302.54,302.54,0,0,0,46.1-3.31,241.47,241.47,0,0,1,21.44,23.87c-48,12.55-107.55,10.4-189.32-6.48C178.2,78.65,115.43,77.51,66.71,89.23A242.35,242.35,0,0,1,107,52.59m58.74,420.55a100.55,100.55,0,0,0,26.08-12.71,99.46,99.46,0,0,0,56.32,17.19,97,97,0,0,0,54.66-17.19,101.27,101.27,0,0,0,26.33,12.75,240.67,240.67,0,0,1-163.39,0"/></g></g></svg>