<svg xmlns="http://www.w3.org/2000/svg" viewBox="0 0 213.06 302.52"><defs><style>.cls-1,.cls-6{fill:#012b40;}.cls-2{opacity:0.15;}.cls-3{fill:#045a7f;}.cls-4{fill:#00a7d5;}.cls-5{fill:#73c900;}.cls-6{font-size:12px;font-family:Manrope-Bold, Manrope;font-weight:700;}.cls-7{letter-spacing:-0.01em;}.cls-8{font-size:6px;fill:#185a7d;font-family:Manrope-Regular, Manrope;font-weight:400;}.cls-9{letter-spacing:-0.01em;}.cls-10{letter-spacing:0em;}.cls-11{letter-spacing:-0.02em;}.cls-12{fill:#f90e37;}</style></defs><g id="Capa_2" data-name="Capa 2"><g id="_ÎÓÈ_1" data-name="—ÎÓÈ_1"><path class="cls-1" d="M158.18,56.16a4.3,4.3,0,0,1,.24.48l.07.15a10.67,10.67,0,0,0-.18-1.56,4.52,4.52,0,0,1-.43.67h0A.46.46,0,0,1,158.18,56.16Z"/><path class="cls-1" d="M102.73,3.3a2.4,2.4,0,0,0,.53.76A2.47,2.47,0,0,0,103,2.75c-.07-.18-.14-.36-.2-.55a1.91,1.91,0,0,1-.07-.28c0-.12-.07-.36-.13-.39s0,0-.07,0-.05,0-.07.1a1.19,1.19,0,0,0,0,.22.26.26,0,0,1,0,.27A2.18,2.18,0,0,0,102.73,3.3Z"/><path class="cls-1" d="M99.62,1.41c0,.15.07.31.1.46.17.82.31,1.48,1,1.61A2.69,2.69,0,0,0,100.33,2,1.21,1.21,0,0,0,99.62,1.41Z"/><path class="cls-1" d="M60.74,300.52a.26.26,0,0,1,.15-.16A.68.68,0,0,0,61,300a3.09,3.09,0,0,1-.6,0c-.37-.07-.47-.06-.72.3l-.06.09a1.92,1.92,0,0,1-.38.43,1.55,1.55,0,0,1-.22.12.55.55,0,0,0-.17.1.24.24,0,0,0-.08.13.31.31,0,0,0,.24.19,1.55,1.55,0,0,0,1.27-.29.18.18,0,0,1,.14,0h0a.19.19,0,0,1,.12.1,2,2,0,0,1,.11.79,1.26,1.26,0,0,0,0,.44c0,.07,0,.17.08.14s.32-.22.42-.44.19-.58.12-.67a.78.78,0,0,0-.18-.08.69.69,0,0,1-.46-.38A.62.62,0,0,1,60.74,300.52Z"/><path class="cls-1" d="M213,166.26a.25.25,0,0,0-.3-.07.24.24,0,0,0-.05.21.29.29,0,0,1,0,.16l0,0a1,1,0,0,0,.32.24l0-.07C213.09,166.43,213.1,166.38,213,166.26Z"/><path class="cls-1" d="M116.45,148.94l-.06,0h0a.23.23,0,0,1-.16-.25,3.46,3.46,0,0,1,.07-.41,4.27,4.27,0,0,0-1.57-1.43,9.21,9.21,0,0,0-5.17-.83l-1,0a7.17,7.17,0,0,1-1.13-.09,4.21,4.21,0,0,0-2.2.14,3.87,3.87,0,0,0-1.54,1.54,4.65,4.65,0,0,1-1.46,1.53c-.39.22-.42.24-.4.71,0,.23,0,.47,0,.71a4.33,4.33,0,0,1-.38,2.76,4.61,4.61,0,0,1-.86.93c-.54.49-1.1,1-1.08,1.62a7.28,7.28,0,0,0,.71,2.34c.12.28.24.54.33.77s.11.31.16.47a3.83,3.83,0,0,0,.78,1.55,1.26,1.26,0,0,0,.31.22,1.38,1.38,0,0,1,.53.48c.13.2.25.41.36.62a2.92,2.92,0,0,0,1.16,1.37,1.51,1.51,0,0,0,.68.07,1.51,1.51,0,0,1,.79.08c.44.23.44.62.45,1a1.66,1.66,0,0,0,0,.31c.08.85.65,1,1.39,1.2a2.52,2.52,0,0,1,1.27.85l.12.13a8.27,8.27,0,0,0,2.21,1.72,5.86,5.86,0,0,1,1.12.8l.58.45a3.55,3.55,0,0,0,.4.23,2.27,2.27,0,0,1,1,.84c.14.29.2.41.39.5a.38.38,0,0,0,.12,0,.53.53,0,0,1,.33.23,1.78,1.78,0,0,1,.34,1.28,2,2,0,0,1-.72,1.27,3.19,3.19,0,0,0-.94,1.2l0,.08c-.21.5-.35.83-.89,1a1,1,0,0,0-.8.83,1.9,1.9,0,0,0,0,.71,2.42,2.42,0,0,1,0,.85c-.16.76-.86,1-1.48,1.16a2.52,2.52,0,0,0-.39.12l.11.09a3.43,3.43,0,0,0,1.49.5,5.84,5.84,0,0,1,1.17.32,2.3,2.3,0,0,0,1.3.16,1.07,1.07,0,0,1,1.26.52c.4.62,1.28,1.18,1.88.57.42-.43.9-.92,1.5-.52a1.23,1.23,0,0,1,.34.46c.06.11.19.34.24.34h0a2.85,2.85,0,0,0,.5-.58,3.1,3.1,0,0,1,.31-.39,2.64,2.64,0,0,1,1.38-.83,1.33,1.33,0,0,1,.45.07.57.57,0,0,0,.44,0,2.33,2.33,0,0,0,.63-.82,2.36,2.36,0,0,0,.15-.25,12.3,12.3,0,0,0,1.41-3.23l0-.07q.07-.26.18-.54a.88.88,0,0,1-.24-.55,1.42,1.42,0,0,1,.24-.94.7.7,0,0,1,.37-.26.68.68,0,0,0,.15-.08,1.07,1.07,0,0,0,.23-.35,1.65,1.65,0,0,1,.14-.26l.15-.25a2.23,2.23,0,0,0,.4-1c.09-.54.19-1.06.3-1.59a.23.23,0,0,1,.12-.16c.11-.23.24-.44.36-.65a2.11,2.11,0,0,0,.45-1.25,1.8,1.8,0,0,0-1.15-1.19,1.2,1.2,0,0,1-1.24.88h-.08a1.94,1.94,0,0,0-.41.11,1,1,0,0,1-1.15-.11c-.66-.68-.06-2.44.22-3.28l0-.06a2.08,2.08,0,0,0,.06-1.2c0-.13,0-.26-.06-.43a4.33,4.33,0,0,1,0-.72,2.87,2.87,0,0,0,0-.78,4.6,4.6,0,0,0-1-1.78.57.57,0,0,0-.6-.16,1.89,1.89,0,0,1-.43,0,1.39,1.39,0,0,1-.47-.18.73.73,0,0,0-.33-.13c-.43.5-.91.31-1.3.15a10.82,10.82,0,0,0-1.69-.55,2.2,2.2,0,0,1-1.15-.79,2,2,0,0,0-.38-.27,1.7,1.7,0,0,1-.64-.55c-.2-.43.14-1,.48-1.72a4.11,4.11,0,0,0,.41-.89,7.9,7.9,0,0,0,.16-3c0-.15-.05-.3-.08-.44a7.24,7.24,0,0,1-.24-1.79,4.45,4.45,0,0,1,.13-.8A5.8,5.8,0,0,0,116.45,148.94Z"/><path class="cls-1" d="M97.28,103c.12,0,.17.06.23,0s.21-.57.24-.78l0-.29a2,2,0,0,0,0-1.09.65.65,0,0,0-.53-.23,1,1,0,0,0-.65.27,2.24,2.24,0,0,1-.53.31,1.65,1.65,0,0,1-1-.09l-.24-.07a4.16,4.16,0,0,0-1.45-.29,4.27,4.27,0,0,1-1.25.7,4.63,4.63,0,0,0-.65.29,2.84,2.84,0,0,0-.79.73l-.26.31a3.39,3.39,0,0,0-.5.73,3.59,3.59,0,0,1-.36.57c-.45.64-.8.4-1.1.19a1.5,1.5,0,0,0-.33-.19c-.38-.19-.61.09-1,.58a2.37,2.37,0,0,1-1,.88c-.53.2-.85-.15-1.12-.46l-.14-.13a2.43,2.43,0,0,0-1.06-.68l-.11,0c-.25-.09-.77-.3-.89,0s.08.51.2.76.11.23.14.32a12,12,0,0,1,.44,1.82,9.82,9.82,0,0,0,.57,2.13c.1.22.18.4.27.56a1.91,1.91,0,0,1-.2,2.45,2.67,2.67,0,0,0-.34,1.49,3.52,3.52,0,0,1-.44,1.82,2.48,2.48,0,0,1-.39.45,1,1,0,0,0-.4.65,1.84,1.84,0,0,0,.08.7,2.5,2.5,0,0,1,0,1.17c-.31,1.38-.63,2.37-1.85,2.65-.08.56,0,1.23.37,1.5a.26.26,0,0,1,.09.17c0,.59-.38.72-.67.8s-.55.2-.59.51a2.31,2.31,0,0,0,.54,1.6,4.31,4.31,0,0,1,.5,1,3.07,3.07,0,0,1,.13,1.32c0,.72-.09.86-.62,1.19a4.3,4.3,0,0,0-1.86,1.89,3.45,3.45,0,0,0,.47,3.32q.09.17.18.3a2.58,2.58,0,0,1,.49,1.35,9.44,9.44,0,0,1-.09,1.39,3.52,3.52,0,0,0,.15,2.28,5.14,5.14,0,0,1,.34.67,4.28,4.28,0,0,0,.65,1.1.26.26,0,0,1,.1.2,1.42,1.42,0,0,1-.38,1,1.53,1.53,0,0,1-.88.49,3.72,3.72,0,0,1,.17,1.75,5.14,5.14,0,0,1-.16.76,3.76,3.76,0,0,0-.15,1.5,1.36,1.36,0,0,0,.34.65,2,2,0,0,1,.39.67,3.39,3.39,0,0,1,0,1.42,3.87,3.87,0,0,0-.06.81,4.25,4.25,0,0,0,.28,1.17,6.54,6.54,0,0,1,.24.82,6.28,6.28,0,0,1,0,2l-.06.38c-.1.71-.1,1,.24,1.18a1.75,1.75,0,0,0,.73,0,2.12,2.12,0,0,1,.93.08c.83.31,1.83-1,2.19-2a.33.33,0,0,1,.12-.14.82.82,0,0,1,.82.16.91.91,0,0,0,.42.17c.44,0,.76-.7.81-1.21a.27.27,0,0,1,.14-.22.16.16,0,0,1,.2,0,6.47,6.47,0,0,0,1.77,1.63,3.24,3.24,0,0,0,1.9.19,2.33,2.33,0,0,1,.81.06l.34.06h0a.19.19,0,0,1,.15.21,3.29,3.29,0,0,1-.24,1.2,2.06,2.06,0,0,0-.18,1,2.21,2.21,0,0,0,1,.89h0c.43-.08.52-.5.64-1.18a3.28,3.28,0,0,1,.28-1,2,2,0,0,1,1.83-1.18h0a6.46,6.46,0,0,1,1,.28,2.7,2.7,0,0,0,2.07.17.16.16,0,0,1,.2.06,3.47,3.47,0,0,1,1.2-1.67,4,4,0,0,0,.76-.82,3.75,3.75,0,0,0,.3-2.4c0-.24,0-.49,0-.73a1.05,1.05,0,0,1,.66-1.22,4.06,4.06,0,0,0,1.3-1.39,4.21,4.21,0,0,1,1.73-1.69,4.48,4.48,0,0,1,2.37-.16,10,10,0,0,0,1.09.08l1,0c1.85-.05,3.61-.11,5.33.88a5,5,0,0,1,1.62,1.39,2.74,2.74,0,0,1,.38-.45l.14-.13a2.17,2.17,0,0,0,.42-.63c.07-.12.14-.26.23-.4s.22-.35.34-.52.33-.51.48-.77a.26.26,0,0,1,0-.15,3.94,3.94,0,0,1,.36-.83,2.07,2.07,0,0,0,0-.22.24.24,0,0,1,.2-.23,2.89,2.89,0,0,0,.48-1.38,5,5,0,0,0-.22-1,4.9,4.9,0,0,1-.24-1.69,2.29,2.29,0,0,0,0-.41.94.94,0,0,0-.29-.12l-.28-.09a1.53,1.53,0,0,1-.75-.38,3,3,0,0,1-.58-1.23c0-.14-.11-.31-.17-.48a3.42,3.42,0,0,1-.26-.76,1.72,1.72,0,0,1,.38-1.29,1.39,1.39,0,0,0,.33-1,17.51,17.51,0,0,1-2.72-.57,5.9,5.9,0,0,0-.73-.15,2.91,2.91,0,0,1-1.88-.81l-.2-.19a1.49,1.49,0,0,1-.5-.64,2.14,2.14,0,0,1,.14-1.24c0-.14.07-.26.1-.37l0-.17a4.55,4.55,0,0,0,.16-1.33.93.93,0,0,0-.18-.42,1.4,1.4,0,0,1-.24-.55,2.54,2.54,0,0,1,.1-1.14c0-.16.07-.33.1-.48a.26.26,0,0,1,0-.21,2.48,2.48,0,0,1,0-.27c0-.07,0-.13,0-.2a.3.3,0,0,1,.06-.26s0,0,0,0a3.16,3.16,0,0,1,.19-1.25,1.65,1.65,0,0,1,.4-.54.87.87,0,0,0,.34-.61,1,1,0,0,0-.37-.81,2.3,2.3,0,0,1-.38-.56,1.1,1.1,0,0,1-.09-.33.28.28,0,0,0-.12-.23,1.14,1.14,0,0,0-.49-.13,2.81,2.81,0,0,1-.35-.06,7.17,7.17,0,0,1-1-.43,4.49,4.49,0,0,0-1.28-.49h0a1.58,1.58,0,0,0-.41.05c-.24,0-.49.11-.68-.09a.91.91,0,0,1-.2-.66,4.09,4.09,0,0,1,0-.53.9.9,0,0,0,0-.41s-.09-.09-.37-.09a.39.39,0,0,0-.15.06.46.46,0,0,1-.47,0,1.31,1.31,0,0,1-.35-.62,2,2,0,0,0-.14-.34,5.75,5.75,0,0,0-1.12-1l-.15-.12a2,2,0,0,0-1.39-.27H103a.21.21,0,0,1-.19-.21c0-.37,0-.38-.29-.5l-.21-.11a2.17,2.17,0,0,1-.64-.43c-.2-.18-.83-.44-1.09-.31a.11.11,0,0,0,0,.08.22.22,0,0,1-.19.2.69.69,0,0,1-.66-.23,1.54,1.54,0,0,1-.09-1.11l0-.22c.07-.7-.31-1-1-1.39l-.23-.08a1,1,0,0,1-.55-.27,2.66,2.66,0,0,1-.32-1,2.88,2.88,0,0,0-.1-.47,8.24,8.24,0,0,1-.21-.91,4,4,0,0,0-.54-1.6.29.29,0,0,1,0-.3c.05-.1.14-.17.23-.13.28.09.28.09.49-.19.31-.43.3-.45.14-.68a3.73,3.73,0,0,0-.28-.38,1.76,1.76,0,0,1-.46-1.77.24.24,0,0,1,.17-.18A.55.55,0,0,1,97.28,103Z"/><path class="cls-1" d="M60,45.15a3,3,0,0,1,.58.6,6.38,6.38,0,0,1,.32.57,2.42,2.42,0,0,0,.53.81,2.69,2.69,0,0,0,.49.34,2.27,2.27,0,0,1,.88.8,4.49,4.49,0,0,1,.33.86,2.11,2.11,0,0,0,.45.95c.56.58,2.6,1.15,3.26.66a3.08,3.08,0,0,0,.57-.69l.08-.12a.18.18,0,0,1,.15-.09.16.16,0,0,1,.15.07c.27.39.52.84.76,1.26a11.09,11.09,0,0,0,.94,1.49c.48.63,1.21.34,1.94.75l.16.09a2.17,2.17,0,0,1,1.43,2l0,.15a3.54,3.54,0,0,0,.59,2.14A5.78,5.78,0,0,0,76,59.18a.21.21,0,0,1,.14.23,4.2,4.2,0,0,1-.1.7,2.28,2.28,0,0,0,0,.94,3.83,3.83,0,0,0,.3.77,4.06,4.06,0,0,1,.27.6,2.21,2.21,0,0,1,0,1,1.55,1.55,0,0,0,0,.61c.09.26.37.28.77.26a3.54,3.54,0,0,1,.48,0,3.89,3.89,0,0,1,.74.28,3.51,3.51,0,0,0,.61.24l.15,0a.73.73,0,0,0,.49.06c.08,0,.17-.19.24-.32s.24-.41.44-.46.48.12.66.3a.91.91,0,0,0,.4.29,3.37,3.37,0,0,0,.79.07,5.1,5.1,0,0,1,.87.07,3,3,0,0,1,1.44.91,5.83,5.83,0,0,0,2.54,1.47.25.25,0,0,1,.12.3.22.22,0,0,1-.25.17c-.09,0-.45.17-1.7,1.49l-.17.18a4.35,4.35,0,0,0-1.37,2.12l.33.28c.9.8,1.74,1.46,2.2.78a9.78,9.78,0,0,0,.82-3.7c.05-.49.1-1,.16-1.33a17,17,0,0,1,1.09-3.28c1-2.48,2-5.05.65-6.72l-.21-.24a2.25,2.25,0,0,1-.73-1.81c0-.39.06-.76.1-1.12a7.52,7.52,0,0,0,.07-1.71.29.29,0,0,1,.1-.25.16.16,0,0,1,.22,0,1.19,1.19,0,0,0,1.24.21l.4-.07a2.59,2.59,0,0,1,1,.1l.39.1a3.41,3.41,0,0,0,.1-1.12l-.17,0c-.63,0-1.42-.1-1.66-1-.11-.45-.17-3,.53-3.38.26-.14.64.08,1.23.47a2.79,2.79,0,0,0,.77.41c.42.07.85.11,1.27.15s.74.07,1.11.13c.87.13,1.06.09,1.67-.64a.18.18,0,0,1,.2-.06.19.19,0,0,1,.12.16,2.37,2.37,0,0,1,0,.84,2.57,2.57,0,0,0,1.52-.39,2.13,2.13,0,0,0,.4-.39.82.82,0,0,1,.91-.4c.36-1,.29-1.63-.22-2a2.39,2.39,0,0,1-1.22-2c0-.51.43-.68.78-.83a1.46,1.46,0,0,0,.77-.57A2.54,2.54,0,0,0,99.69,40c-.07-.24-.15-.48-.2-.72a12,12,0,0,1-.15-3.15c0-.36,0-.73,0-1.11,0-.15,0-.34,0-.54a4.26,4.26,0,0,1,.43-2.58,1.66,1.66,0,0,1,1-.4l.33-.07a3.35,3.35,0,0,0,0-1.9.84.84,0,0,0-.65-.44h-.06a8.52,8.52,0,0,0-2.27.13l-1,.12H97c-1.1.11-1.77.17-2.59-1l-.4-.58a13.52,13.52,0,0,0-2.26-2.84A4.49,4.49,0,0,0,89,24.22c-.38,0-.73,0-1.06-.07h-.07c-1.31-.2-1.6-.92-2.14-2.19l-.07-.17a3.6,3.6,0,0,1-.13-2.46A7.07,7.07,0,0,0,85.74,18a3.37,3.37,0,0,0-.18-1.09c-.06-.22-.12-.44-.17-.69a5.13,5.13,0,0,1,0-1,3,3,0,0,0,0-.92c-.11-.37-.55-.48-.93-.58s-.7-.18-.76-.52.09-.55.45-1l.14-.16a2.27,2.27,0,0,0,.78-1.62q0-.37,0-.75a4.82,4.82,0,0,1,.66-2.82,4.42,4.42,0,0,1,1.24-1,4.87,4.87,0,0,0,.92-.68,1.64,1.64,0,0,0,.26-.46,1.85,1.85,0,0,1,.41-.64,1.26,1.26,0,0,1,.93-.24h.72c.59,0,1.7,0,2-.25a5.22,5.22,0,0,0,.29-1.9c0-.16,0-.31,0-.44a2.93,2.93,0,0,0-.57-.18A3.78,3.78,0,0,1,91.3.87L91.05.73c-.37-.19-.46-.24-.78.08l-.49.51a5.37,5.37,0,0,1-2,1.53,7.43,7.43,0,0,0-.94.51c-.73.44-1.5.9-2.13.68-.2-.06-.4-.15-.62-.24A2.75,2.75,0,0,0,82,3.48c-.57.25-.8.92-1,1.63a4.39,4.39,0,0,1-.7,1.44.16.16,0,0,1-.17.07.17.17,0,0,1-.13-.13,2.75,2.75,0,0,1-.15-.65,1,1,0,0,0-.32-.76c-.34-.27-.47-.14-.84.18l-.14.12a8,8,0,0,0-1.62,2.14c-.19.32-.38.65-.61,1L76,8.88a3.89,3.89,0,0,0-.61,1.06,2.57,2.57,0,0,0-.08.77,2.78,2.78,0,0,1-.23,1.21,4.3,4.3,0,0,1-2,1.22c-.26.1-.49.19-.65.27s-.26.13-.41.2a5.41,5.41,0,0,0-1.69,1.08h0l-.06.34a4.3,4.3,0,0,0-.08.69,1.73,1.73,0,0,0,.06.3,1.4,1.4,0,0,1,0,.88.65.65,0,0,1-.67.34l-.2,0a5.32,5.32,0,0,0-.66.29,4.6,4.6,0,0,1-.68.31l-.26.07a3.39,3.39,0,0,0-1,.44.34.34,0,0,0-.12.13.47.47,0,0,1-.1.1c0,.4-.12.8-.2,1.19a6.63,6.63,0,0,0-.11,3.33,6.3,6.3,0,0,0,.35.82,4.22,4.22,0,0,1,.52,1.63,3,3,0,0,1-.45,1.6c-.08.16-.17.34-.24.52a6.22,6.22,0,0,0-.22,2.71,11.1,11.1,0,0,1,0,1.63,9.08,9.08,0,0,0,.12,1.69,5.76,5.76,0,0,1-.07,2.77c-.38,1-2,3.72-3.1,3.93A2.67,2.67,0,0,1,62,40.27c-.88-.26-1.4-.35-1.73.77a5.54,5.54,0,0,0-.16.83,5.22,5.22,0,0,1-.31,1.27l-.22.42c-.2.35-.31.57-.23.85A2.07,2.07,0,0,0,60,45.15Z"/><path class="cls-1" d="M51.25,65.85c.2,1.17-.79,1.61-1.37,1.88l-.24.11-.3.13c-.06,0-.13,0-.14.07a2.14,2.14,0,0,0-.1.41,2.6,2.6,0,0,0-.05.63s0,0,0,0c.22-.21.5-.15.91-.06l.27.05a2.08,2.08,0,0,1,1.43,1.07l.34.49a7.63,7.63,0,0,0,1.85,2.18,6.56,6.56,0,0,1-.12-1,.3.3,0,0,1,.12-.24.15.15,0,0,1,.21,0,1.57,1.57,0,0,0,.32.24l.24.16.19,0,.19-.07a3.27,3.27,0,0,0,.63-1.41,6.76,6.76,0,0,1,.34-1c.26-.53.57-1,.86-1.5a15.45,15.45,0,0,0,1-1.65c0-.09.08-.2.13-.33a2.58,2.58,0,0,1,.49-.92,1.07,1.07,0,0,1,.55-.26.78.78,0,0,0,.39-.18,1.76,1.76,0,0,0,.24-.35,2.08,2.08,0,0,1,.47-.61,2.18,2.18,0,0,1,1.07-.51,5.11,5.11,0,0,1,1.1-.09,4,4,0,0,0,1.54-.25A7.91,7.91,0,0,0,65.06,62a10.71,10.71,0,0,1,1.15-.74,3.56,3.56,0,0,0,1.31-1.25c.1-.14.21-.29.34-.44a2.65,2.65,0,0,0,.45-1,2.6,2.6,0,0,1,.56-1.08,3.06,3.06,0,0,1,.3-.23c.14-.09.2-.13.31-.46a10,10,0,0,0,.27-1.3,3.15,3.15,0,0,0-.18-1.49,6.07,6.07,0,0,1-.19-.71.25.25,0,0,1,0-.17,1.57,1.57,0,0,1-.21-.17,13.49,13.49,0,0,1-1-1.55c-.2-.35-.39-.69-.59-1a2.77,2.77,0,0,1-.61.7c-.87.65-3.09-.07-3.71-.68a2.66,2.66,0,0,1-.54-1.15,4.23,4.23,0,0,0-.29-.74,1.87,1.87,0,0,0-.75-.68,3,3,0,0,1-.55-.38,3.14,3.14,0,0,1-.62-.94,4.35,4.35,0,0,0-.29-.52,2.45,2.45,0,0,0-.51-.51,2.4,2.4,0,0,1-.75-.91c-.21.11-.42.22-.64.36a8.24,8.24,0,0,1-1.06.56,6.8,6.8,0,0,1-1.1.32c-1.06.25-1.89.45-2.18,1.85-.05.26-.09.53-.13.81a6.73,6.73,0,0,1-.49,2,2.8,2.8,0,0,1-1.18,1.14l-.18.12a.57.57,0,0,1,.11.33c0,.62-.76,1.24-.85,1.3a3.47,3.47,0,0,0-.84,1l-.29.45a8.08,8.08,0,0,0-1.24,4.78,2.42,2.42,0,0,1,.93,0,3,3,0,0,0,.79,0,5.43,5.43,0,0,0,.78-.34c.66-.34,1.35-.68,1.75-.39a.25.25,0,0,1,.08.25,7.8,7.8,0,0,1-1.26,3,7.56,7.56,0,0,1-.54.63,4.47,4.47,0,0,0-.66.82A1.45,1.45,0,0,0,51,65,3.21,3.21,0,0,1,51.25,65.85Z"/><path class="cls-1" d="M96.27,287.62c-.08,0-.2.32-.27.5s-.25.66-.49.75a.46.46,0,0,1-.47,0,1.71,1.71,0,0,1-.42-1.11,2.47,2.47,0,0,0-.13-.55,1.56,1.56,0,0,0-1.63-.56c-.31.06-1.36.31-1.56,1.1a.23.23,0,0,1-.22.18,2.53,2.53,0,0,0-.48,0,2.36,2.36,0,0,1-1-.16,1.63,1.63,0,0,1-.38-.3,1.09,1.09,0,0,0-.37-.27,2,2,0,0,1-1.14,1,2.57,2.57,0,0,0-.52.28.21.21,0,0,1-.2.17h0a1.07,1.07,0,0,0-.15.22.21.21,0,0,1-.19.14.74.74,0,0,1-.47-.28.29.29,0,0,1,0-.34l0,0-.16-.12c-.25-.19-.5-.39-.69-.29a9.48,9.48,0,0,0-1,1.32,1.64,1.64,0,0,1,.79.28,1.7,1.7,0,0,1,.34.37,1,1,0,0,0,.4.4c1,.41,1.65,0,2.47-.66a1.4,1.4,0,0,0,.2-.16c.21-.19.45-.4.7-.36h.06c.17.05.32.23.43.56a1.49,1.49,0,0,1-.09,1,1.1,1.1,0,0,0-.08.46c.17.62,1.24.37,1.82.24l.34-.07a4.58,4.58,0,0,1,.78-.05,3.79,3.79,0,0,0,1.59-.28.47.47,0,0,0-.14-.2.23.23,0,0,1-.09-.22.32.32,0,0,1,.12-.22,3.76,3.76,0,0,1,2.58-.24,4,4,0,0,0,0-2.09C96.37,287.61,96.27,287.62,96.27,287.62Z"/><path class="cls-1" d="M72.69,297.87h-.16l-.33,0c-.36,0-.86-.11-1.1.11a1.79,1.79,0,0,1-.5.59h0a2.06,2.06,0,0,0,1.85.18,2.41,2.41,0,0,0,.78-.75s0,0,0,0A1.81,1.81,0,0,0,72.69,297.87Z"/><path class="cls-1" d="M68.48,297.64H68.4l-.67,0a5.16,5.16,0,0,1-2.31-.48L63,295.78a3.69,3.69,0,0,1-1.35-1.64l-.07-.13a3.23,3.23,0,0,0-1.34-1.33,3,3,0,0,1-1.64-2,2.24,2.24,0,0,1,.24-1.13,1.55,1.55,0,0,0,.2-.77,1.42,1.42,0,0,0-.82-1,5.72,5.72,0,0,1-.18,2c0,.14-.06.26-.08.36-.18,1-.31,2-.43,2.94s-.25,1.88-.42,2.81a3,3,0,0,1-.33,1,.64.64,0,0,1,.21.24,1.31,1.31,0,0,1,.16.31c.46.06.93.13,1.38.15a4.35,4.35,0,0,1,2,.61l.23.11a1.87,1.87,0,0,1,.53.33,2.13,2.13,0,0,1,.34.45,2.5,2.5,0,0,0,.24.34c.22.24.77.5.94.33s-.08-.33-.15-.47l-.06-.09a.3.3,0,0,1,0-.21.26.26,0,0,1,.13-.17,1.31,1.31,0,0,1,.33-.09,3.49,3.49,0,0,1,1.36.17l.23.05,1.05.28c.43.12.87.23,1.3.33,1,.22,1.49.14,2-.83.13-.27.3-.63.23-.82S68.71,297.66,68.48,297.64Z"/><path class="cls-1" d="M156.31,72.21c1.44,1.2,4.52,1.49,5.83-.6a6.12,6.12,0,0,0,.59-1.39,4.62,4.62,0,0,1,1-1.92c-.31-.5-1.08-.4-1.7-.32-.23,0-.45,0-.62,0s-.16-.09-.17-.2c0-.55-.45-1.55-.89-1.64a2.41,2.41,0,0,1-1.12,1.33,1.08,1.08,0,0,1-1.08-.31c-.45-.41-1.44-1-1.86-.79a.32.32,0,0,1,0,.17,15.33,15.33,0,0,1-.47,1.71c-.16.52-.33,1-.44,1.59A2.31,2.31,0,0,0,156.31,72.21Z"/><path class="cls-1" d="M89.46,4.34a1,1,0,0,0-.68.16A1.25,1.25,0,0,0,88.5,5a2,2,0,0,1-.37.61,5.38,5.38,0,0,1-1,.75A4,4,0,0,0,86,7.23a4.14,4.14,0,0,0-.54,2.47c0,.27,0,.53,0,.78a2.85,2.85,0,0,1-.92,2l-.14.16a1.22,1.22,0,0,0-.32.48,1.36,1.36,0,0,0,.48.17c.46.12,1,.26,1.2.86a3.26,3.26,0,0,1,0,1.13,3.64,3.64,0,0,0,0,.81,6,6,0,0,0,.15.64A4.16,4.16,0,0,1,86.14,18a7.68,7.68,0,0,1-.2,1.45,3.07,3.07,0,0,0,.11,2.12l.07.17c.52,1.25.75,1.78,1.86,1.95h.07a10.28,10.28,0,0,0,1,.08,4.79,4.79,0,0,1,2.9.73,14.28,14.28,0,0,1,2.34,2.93l.39.58c.71,1,1.21,1,2.3.89l.17,0c.29,0,.61-.07.94-.12a8.7,8.7,0,0,1,2.36-.12h.06a1.21,1.21,0,0,1,.91.62,4.07,4.07,0,0,1,0,2.43.24.24,0,0,1-.14.2,4.61,4.61,0,0,1-.5.12,1.79,1.79,0,0,0-.78.25,3.91,3.91,0,0,0-.32,2.2c0,.21,0,.41,0,.57,0,.39,0,.76,0,1.13a11,11,0,0,0,.13,3c0,.23.12.46.19.69a3.05,3.05,0,0,1,0,2.53,1.78,1.78,0,0,1-1,.77c-.33.15-.48.23-.49.38,0,.53.31,1.07,1,1.59s.82,1.52.28,2.82a.22.22,0,0,1-.07.09,1.59,1.59,0,0,0,.29.33.19.19,0,0,1,.08.16,6.93,6.93,0,0,1-.08,1.5c0,.12,0,.23,0,.34s-.11.5-.21.85a5.61,5.61,0,0,0-.22.94c.06.24.43.32.82.4.58.11,1.37.27,1.45,1.27a2.61,2.61,0,0,0,.33-.08c.82-.22,1.94-.53,2.45.09a1.25,1.25,0,0,1,.26.77,2.05,2.05,0,0,0,.28-.49,2.28,2.28,0,0,1,.41-.67,3,3,0,0,1,.67-.51,1.63,1.63,0,0,0,.78-.8.19.19,0,0,1,.19-.12,3.09,3.09,0,0,1,.79.22,1.92,1.92,0,0,0,.89.2c.33,0,.33,0,.4-.26a2.88,2.88,0,0,1,.17-.43,2.07,2.07,0,0,1,.81-.9,2.15,2.15,0,0,0,.65-.63l.1-.17c.5-.79.54-.81,1.45-1,.41-.11.89-.47.91-.64s0-.11-.21-.2A3.17,3.17,0,0,0,112,48a5.08,5.08,0,0,1-.95,0,.21.21,0,0,1-.16-.26c0-.22.05-.43.09-.65a3.15,3.15,0,0,0,0-1.7,1.31,1.31,0,0,1-.09-.62,1.36,1.36,0,0,0,0-.29,2,2,0,0,1,.2-1,3.36,3.36,0,0,0,.15-.55c0-.34-.14-.45-.41-.64a1.54,1.54,0,0,1-.57-.65,3.43,3.43,0,0,1-.2-2.1.27.27,0,0,1,.13-.18.17.17,0,0,1,.18,0,9.31,9.31,0,0,0,1.43,1,1,1,0,0,0,.58-.06c.32-.09.68-.2.85.14a2,2,0,0,1,.13.44,1,1,0,0,0,.12.39,1,1,0,0,0,.52.23,1.54,1.54,0,0,1,.62.23,3.19,3.19,0,0,1,.76.89,3.22,3.22,0,0,0,.55.7,3.25,3.25,0,0,0,.25-.78,3.5,3.5,0,0,1,.33-1c.07-.11.2-.1.31-.09l1.45.25.4.07c.38.09,1.27-.55,2-1l.68-.46a1.36,1.36,0,0,1,1.38-.13.81.81,0,0,0,1-.22,2.08,2.08,0,0,0,.46-1.66.13.13,0,0,1-.17-.05.29.29,0,0,1,0-.34,1.09,1.09,0,0,1,.11-.1,7.25,7.25,0,0,0-.26-1.07l-.06-.2a8,8,0,0,0-.41-1.11,2.91,2.91,0,0,0-.29-.42,2.22,2.22,0,0,1-.53-1.1,1.55,1.55,0,0,1,.53-1.21,1.74,1.74,0,0,0,.25-.29,7.35,7.35,0,0,0,.68-1.31l.1-.23c0-.1.12-.16.2-.14l.3.05c.65.14,2.34.47,2.61-.25,0-.13,0-.21-.22-.45a1.8,1.8,0,0,1-.19-.2,2.6,2.6,0,0,1-.57-1.36c-.23-1.54.16-2.41,1.27-2.82a3.46,3.46,0,0,1,.37-.11c.5-.15,1.35-.4,1.56-.88a.7.7,0,0,0,0-.52c-.1-.34-.39-.38-.86-.4s-.92-.05-1.06-.61a1.76,1.76,0,0,1-.8-.24.25.25,0,0,1-.09-.23,5.37,5.37,0,0,1,.1-.54c.14-.69.24-1.27,0-1.37a.22.22,0,0,1-.13-.16.37.37,0,0,1,0-.23c.27-.4.47-1.14.2-1.43-.06-.07-.21-.07-.35-.08a1,1,0,0,1-.66-.24,1.26,1.26,0,0,1-.21-.49.71.71,0,0,0-.09-.28,3,3,0,0,0-1.26-.82,4.18,4.18,0,0,1-1.22-.72,6.55,6.55,0,0,1-.65-.76l-.42-.51c-.08-.09-.17-.16-.24-.24a1,1,0,0,1-.4-.66,1,1,0,0,1,.24-.64,1.86,1.86,0,0,1,.48-.43.89.89,0,0,0,.22-.2s0-.07-.15-.28a1.36,1.36,0,0,0-.85-.37l-.33-.07-.55-.17a11.07,11.07,0,0,0-1.23-.31,3,3,0,0,0-.67,0,1.66,1.66,0,0,1-1.22-.18.18.18,0,0,1-.07-.15c-.12-1.16-.44-1.73-1.16-2a6.71,6.71,0,0,1-.17,1.25c0,.2-.08.4-.11.59a.57.57,0,0,1,.39.33,2.18,2.18,0,0,1,0,1.79c-.26.38-.71.36-1.11.34a1.29,1.29,0,0,0-.44,0,3.17,3.17,0,0,1-3-.66,11.06,11.06,0,0,1-.86-.78c-.74-.73-1.59-1.53-2.33-1.48a3.26,3.26,0,0,0-.47.09,2.16,2.16,0,0,1-.9.06h0a10.88,10.88,0,0,1-1.78-.4,3.12,3.12,0,0,0-1-.12,2.06,2.06,0,0,1-1.89-.75A2.47,2.47,0,0,1,101.92,8c0-.6.06-.92-.32-1.17a7.55,7.55,0,0,0-1.38-.61c-1.22-.44-2.58-.95-3-2.19a3.24,3.24,0,0,1,.06-2.1,3.8,3.8,0,0,1,.18-.47c.19-.47.29-.75.11-1.12S97.34,0,97.29,0s-.13.09-.25.37a2.36,2.36,0,0,0-.11.62,1.74,1.74,0,0,1-.38,1.14,2.2,2.2,0,0,1-1.15.54l-.07,0A2.35,2.35,0,0,1,95.78,5c-.44.93-1.36.75-2,.63a1.08,1.08,0,0,1-.14.47,1.08,1.08,0,0,1-.8.42,2,2,0,0,0-.45.14c-.16.08-.3.17-.43.25a1.61,1.61,0,0,1-1,.36,8.87,8.87,0,0,0,.31,3c.08.34.15.7.23,1.08.32,1.72-.25,2.53-.61,2.86a1.83,1.83,0,0,1-2.42,0,2.8,2.8,0,0,1-.78-2.86,7.43,7.43,0,0,1,1.28-2.58,13.72,13.72,0,0,0,.74-1.19,3.18,3.18,0,0,0-.18-3.17Z"/><path class="cls-1" d="M146.11,44.84l.06.36a17,17,0,0,1,.11,4.22A8.31,8.31,0,0,1,145,52.91a1.76,1.76,0,0,0-.36,1.1c.08.23.4.39,1,.48h.11a7.81,7.81,0,0,0,3.63,0c1.45-.49,2.1-2,2.79-3.54a12.66,12.66,0,0,1,1.36-2.55,5.16,5.16,0,0,1,.57-.59c.5-.51,1.08-1.06,1-1.64a4.44,4.44,0,0,0-.81-1.65,6.81,6.81,0,0,1-.59-1l-.27-.64a.3.3,0,0,1,0-.16.81.81,0,0,0,0-.09l-.15-.05a.75.75,0,0,1-.38-.23,1.7,1.7,0,0,1-.24-.74,1.37,1.37,0,0,0-.2-.6c-.29-.35-.51-.27-.84-.16a1.79,1.79,0,0,1-.68.14,3.84,3.84,0,0,0-.49,0,4.31,4.31,0,0,1-1.57-.2.59.59,0,0,1-.37-.4,1.3,1.3,0,0,1,.17-.84,2.14,2.14,0,0,0,.21-.68.63.63,0,0,0-.31-.62.78.78,0,0,0-.51-.1c-.1.43-.06.53.23.66.05,0,.09.07.11.13a.3.3,0,0,1,0,.21,3.86,3.86,0,0,1-.43.65.28.28,0,0,1,0,.18.23.23,0,0,1-.23.22h-.14c-.12.12-.24.26-.37.38a7.86,7.86,0,0,0-.73.8C145.73,42.45,145.91,43.56,146.11,44.84Z"/><path class="cls-1" d="M136.72,39c0,.15-.05.31-.07.46a1.47,1.47,0,0,1-.29.93.61.61,0,0,1-.58.15,1.75,1.75,0,0,1-.47-.17c-.3-.15-.5-.23-.75,0a1,1,0,0,0-.3.49,2,2,0,0,1-.36.61,1,1,0,0,1,.2.57,1,1,0,0,1-.3.74,1.76,1.76,0,0,1-.51.39c-.2.1-.23.12-.21.59v.11a3.61,3.61,0,0,0,.43,1.9,2.43,2.43,0,0,0,.44.41,3,3,0,0,1,.67.74,4.25,4.25,0,0,1,.34,2,5.57,5.57,0,0,0,.15,1.45,4,4,0,0,0,1,1.57,9.81,9.81,0,0,1,.69.85,1.11,1.11,0,0,1,.2,1l0,0c.08.05.18.07.26.12a1.78,1.78,0,0,0,.51.23,1.58,1.58,0,0,0,.68-.09.79.79,0,0,1,.22-.06,1.53,1.53,0,0,0,.21-.31,1,1,0,0,0-.15-.29l-.05-.09a1.24,1.24,0,0,1,0-1.6c.57-.65,1.39-.42,2-.24l.39.1a.17.17,0,0,1,.11.08l0,.07,0,.06a.33.33,0,0,1,0,.26s-.06.16,0,.22.61.18.89.18.32,0,.43,0h0l.2,0a2.23,2.23,0,0,1,.45.08,1,1,0,0,1,.36.23l.09.09.17.15a1.19,1.19,0,0,0,.45.29,4.82,4.82,0,0,1,.32-.65,7.8,7.8,0,0,0,1.2-3.25,16.27,16.27,0,0,0-.1-4.07l-.06-.35c-.21-1.3-.42-2.64.5-3.87a6.66,6.66,0,0,1,.79-.87h0c-.1,0-.2,0-.31,0l-.2-.06a1.45,1.45,0,0,1-.62-.58,1.57,1.57,0,0,0-.19-.26,9.42,9.42,0,0,0-2-1.73,4.24,4.24,0,0,0-1.12-.45l-.17-.06c-.29-.08-.31-.08-.46.11a1,1,0,0,0-.12.25.91.91,0,0,1-.59.64,1.44,1.44,0,0,1-.89-.27,2.45,2.45,0,0,0-.33-.16,4.28,4.28,0,0,1-1.14-.7,4.36,4.36,0,0,0-1.14-.67c0,.05-.08.09-.14.08l-.07,0a3.33,3.33,0,0,0-.69,1.88C136.82,38.51,136.78,38.77,136.72,39Z"/><path class="cls-1" d="M128,26.14l-.35.11c-.9.33-1.16.94-1,2.23a2.23,2.23,0,0,0,.49,1.14l.15.16a.89.89,0,0,1,.31,1c-.4,1.09-2.12.74-3,.55a.57.57,0,0,1-.15,0l0,.08a7.86,7.86,0,0,1-.73,1.41c-.1.13-.19.23-.29.34-.27.29-.41.46-.39.77a1.82,1.82,0,0,0,.44.83c.12.17.24.33.33.49a8.8,8.8,0,0,1,.43,1.18l.07.2a6.28,6.28,0,0,1,.23.93l0,0a2.42,2.42,0,0,1,2.14-.61,1.31,1.31,0,0,1,.76.93,2.28,2.28,0,0,1-.19,1.9,1.61,1.61,0,0,1-.52.39c-.18.09-.42.22-.45.34s.31.4.53.52A2.33,2.33,0,0,1,128,43.12a2.24,2.24,0,0,1-.87,1.77,2.13,2.13,0,0,0-.69,1,4,4,0,0,0-.12.64,3.33,3.33,0,0,1-.31,1.19,3.84,3.84,0,0,1-.41.56,1.58,1.58,0,0,0-.46.82,1.61,1.61,0,0,0,.34,1,3.83,3.83,0,0,1,.3.61,2.67,2.67,0,0,1,.07,1.33,4.46,4.46,0,0,0-.06.54c0,.78.5,1.5,1.6,2.22a3.54,3.54,0,0,0,1.36.62c.32,0,.45-.13.66-.38a2.86,2.86,0,0,1,.34-.37,1.17,1.17,0,0,1,1.46-.09l.21.09c.42.17.42.17.74-.2l.11-.13a1.44,1.44,0,0,1,1.4-.37c.29,0,.58.06.71-.08a.94.94,0,0,0,.16-.57.27.27,0,0,1,.08-.18.17.17,0,0,1,.16-.06,3.74,3.74,0,0,1,.72.29,2,2,0,0,0,.83.29c.23,0,.33-.07.36-.14a.64.64,0,0,0-.16-.49,7,7,0,0,0-.65-.81,4.39,4.39,0,0,1-1.13-1.75,5.92,5.92,0,0,1-.17-1.59,4,4,0,0,0-.27-1.7,2.32,2.32,0,0,0-.59-.62,3.53,3.53,0,0,1-.48-.47,3.92,3.92,0,0,1-.54-2.2v-.1c-.06-.79.15-.95.46-1.11a1.22,1.22,0,0,0,.4-.29.49.49,0,0,0,.15-.34.65.65,0,0,0-.27-.45.26.26,0,0,1-.08-.23.3.3,0,0,1,.14-.21c.23-.1.31-.28.41-.54a1.58,1.58,0,0,1,.47-.71,1,1,0,0,1,1.09,0,2.25,2.25,0,0,0,.4.15c.09,0,.2,0,.26,0s.1-.33.14-.58a3.23,3.23,0,0,1,.08-.53c.05-.24.09-.49.13-.75a4.2,4.2,0,0,1,.75-2.1,2.72,2.72,0,0,1-.81-1.28.4.4,0,0,1-.39-.07,1.43,1.43,0,0,1-.41-1,.87.87,0,0,1-.67-.58l-.11-.21a.45.45,0,0,0-.49-.29l-.38-.06c-.47-.11-.58-.27-.53-.74a2.18,2.18,0,0,0,0-.38,2,2,0,0,0-.19-.56,1.52,1.52,0,0,1-.22-.75,1.13,1.13,0,0,1,.26-.65.47.47,0,0,0,.15-.42,3.07,3.07,0,0,0-.42-1.16,9.84,9.84,0,0,0-1.08-1.4c-.27-.31-.56-.64-.81-1l-.27-.39A2.85,2.85,0,0,0,129.82,24a.05.05,0,0,1,0,0,1.28,1.28,0,0,1-.05.93C129.48,25.69,128.59,26,128,26.14Z"/><path class="cls-1" d="M116.8,6.82a.44.44,0,0,0,.35-.28,4.8,4.8,0,0,0-1.85-.34h-.13A1.67,1.67,0,0,0,116.8,6.82Z"/><path class="cls-1" d="M108.16,5.05a.25.25,0,0,1-.17.2v0l-.06.44a2.92,2.92,0,0,0,.86.17c.18-.43.19-.53,0-.77a.53.53,0,0,0-.52-.21S108.17,4.94,108.16,5.05Z"/><path class="cls-1" d="M110.21,5.11a.48.48,0,0,0-.14-.2l-.09.45q-.08.28-.12.54a1.81,1.81,0,0,0,.45.14A2,2,0,0,0,110.21,5.11Z"/><path class="cls-1" d="M112,10.39a.6.6,0,0,0,.81.08c.2-.19.19-.32.14-.44a1.25,1.25,0,0,0-1.26-.66.2.2,0,0,1-.12.08c-.06,0-.06,0-.07,0A1.29,1.29,0,0,0,112,10.39Z"/><path class="cls-1" d="M205.76,104.14l.12-.5a13.49,13.49,0,0,0,.35-2,4.47,4.47,0,0,0-.57-2.45,1.65,1.65,0,0,1-.14-1.85.94.94,0,0,0,.1-.58.24.24,0,0,0-.18-.15,2.61,2.61,0,0,0-1,0,3,3,0,0,1-1,0,5.34,5.34,0,0,1-.7-.27l-.56-.23-.42-.12a3.44,3.44,0,0,1-1.51-.71,5.77,5.77,0,0,0-.88-.61c-.16-.09-.33-.19-.49-.3a2.45,2.45,0,0,1-.63-.7c-.09-.14-.19-.27-.29-.4l-.6-.64a6.07,6.07,0,0,1-1.57-2.14,3.69,3.69,0,0,1-.18-1,4.52,4.52,0,0,0-.09-.67,3.45,3.45,0,0,0-.8-1.21,11.25,11.25,0,0,0-1.33-1.17c-.33-.26-.67-.53-1-.82a8.54,8.54,0,0,1-.88-1c-.06-.07-.1-.14-.16-.22a1.17,1.17,0,0,0-.29-.35,1.67,1.67,0,0,0-.86-.11h-.31a2.87,2.87,0,0,0-.75.1,5.72,5.72,0,0,1-.57.11H188a2.53,2.53,0,0,0-.92.12.3.3,0,0,1-.05.16.17.17,0,0,1-.28,0l-.23-.27c-.55-.65-1.25-1.47-2-1.58h-.06a1,1,0,0,0-.69.35,1.23,1.23,0,0,1-1.09.43.23.23,0,0,1-.14-.26,1.17,1.17,0,0,1,.18-.49c.09-.15.11-.2.1-.28s-.5-.35-.7-.44-.29-.15-.37-.21a7.37,7.37,0,0,1-1.36-1.3,1.34,1.34,0,0,1-.16-.22c-.1-.15-.12-.17-.28-.2a1.74,1.74,0,0,0-1.11.45,2.85,2.85,0,0,1-.88.46c-.52.12-.84-.26-1.14-.6a2.68,2.68,0,0,0-.37-.38l0,.26a2.48,2.48,0,0,1-.38,1.31,2.76,2.76,0,0,1-.57.56c-.32.27-.66.55-.69.88V83a.25.25,0,0,1-.21.24h0a.23.23,0,0,1-.16-.23.28.28,0,0,0,0-.09c0-.09,0-.18,0-.28a3.77,3.77,0,0,1,.17-1.23,7.12,7.12,0,0,1,.39-.83,4.18,4.18,0,0,0,.4-.89,5.31,5.31,0,0,0,.31-3c-.24-.56-.83-.76-1.39-1a5.18,5.18,0,0,1-.82-.35l-.36-.21a4.21,4.21,0,0,1-1.07-.75,4.44,4.44,0,0,1-.65-1c-.08-.15-.16-.3-.25-.44l-.13-.22c-.17-.31-.26-.45-.55-.5-.09,0-.23,0-.36,0-.37,0-1,.07-1.06-.65a4.38,4.38,0,0,0-1.21-.34,6.51,6.51,0,0,1-.92-.21A5.39,5.39,0,0,0,164.8,71a11.73,11.73,0,0,1-1.19,0,8.5,8.5,0,0,0-.11,1.11c-.06,1-.12,2.12-.77,2.64a2.69,2.69,0,0,1-2.25.3l-.41-.06a7.09,7.09,0,0,1-.63,1.1,8.57,8.57,0,0,0-.62,1.1.18.18,0,0,1-.35,0,1.79,1.79,0,0,1,.32-1.62c.31-.56.39-.76.11-1a2.67,2.67,0,0,0-1.77-.37c-1.06,0-2.26,0-2.44-1.55a6.29,6.29,0,0,1,0-.87c0-.52.06-.81-.36-1.12a2.66,2.66,0,0,0-1.16-.39,3.35,3.35,0,0,1-1.13-.34.25.25,0,0,1-.09-.31c.07-.19.14-.4.21-.61a5.94,5.94,0,0,1,1.32-2.56,4.69,4.69,0,0,1,2.78-1.06,1,1,0,0,1,.2-.63c.31-.36.88-.17,1.43,0,.25.09.73.25.82.16s0-.13-.13-.63a2,2,0,0,1,.38-2.38,1.31,1.31,0,0,0,.09-1.68l-.53-.71a10.63,10.63,0,0,1-1.71-2.94,4.44,4.44,0,0,1-.22-1.76c0-.27,0-.55,0-.86a6,6,0,0,0-.1-.77,5.56,5.56,0,0,1-.11-1.4c0-.33.08-.64.13-.93a4,4,0,0,0,0-1.6,4.3,4.3,0,0,1-.1-.72c-.05-.59-.1-1-.4-1.1a.23.23,0,0,1-.11-.26c0-.14,0-.27.08-.4a1.33,1.33,0,0,1,.05-.19,3.08,3.08,0,0,1-.61,0,3.6,3.6,0,0,1-1.13,1.63,4.24,4.24,0,0,0-.52.55,12.73,12.73,0,0,0-1.29,2.43c-.7,1.6-1.43,3.25-3,3.8a7.77,7.77,0,0,1-3.68,0h-.1l-.11,0c-.54-.08-1.13-.23-1.29-.75a.88.88,0,0,1,0-.46,1.47,1.47,0,0,1-.59-.36l-.16-.14-.12-.11a.38.38,0,0,0-.23-.15,1.3,1.3,0,0,0-.37-.06l-.21,0h0a2.24,2.24,0,0,0-.39,0c-.48,0-1,0-1.2-.41a.79.79,0,0,1,0-.51l-.3-.08c-.6-.15-1.28-.35-1.7.13-.23.26-.21.45.07.93l0,.09c.33.56.31.73-.17,1.3a.15.15,0,0,1-.11.07l-.26.07a1.69,1.69,0,0,1-.79.11h0a2.18,2.18,0,0,1-.6-.26,1.57,1.57,0,0,0-.48-.22h0a1,1,0,0,1-.31,0,2.25,2.25,0,0,1-1-.31,4.39,4.39,0,0,0-.44-.21,1.11,1.11,0,0,1-.26.62,1.09,1.09,0,0,1-1,.21,1.16,1.16,0,0,0-1.08.24l-.1.12c-.39.45-.54.58-1.15.32l-.21-.09c-.42-.18-.72-.31-1.09,0a4.26,4.26,0,0,0-.3.32,1.09,1.09,0,0,1-1,.53h-.12a3.89,3.89,0,0,1-1.39-.67c-1.24-.8-1.83-1.67-1.79-2.64,0-.22,0-.41.06-.6a1.88,1.88,0,0,0,0-1,2.87,2.87,0,0,0-.26-.53,2.09,2.09,0,0,1-.41-1.33,2.15,2.15,0,0,1,.59-1.14,2.26,2.26,0,0,0,.34-.46,3,3,0,0,0,.26-1,6.75,6.75,0,0,1,.12-.72,2.71,2.71,0,0,1,.85-1.27,1.65,1.65,0,0,0,.69-1.35,1.88,1.88,0,0,0-.83-1.6,1.49,1.49,0,0,0-.2-.12c-.35-.19-.88-.48-.73-1.08.08-.35.4-.53.68-.69a1.19,1.19,0,0,0,.38-.25A1.67,1.67,0,0,0,127,38a.88.88,0,0,0-.53-.66,2.12,2.12,0,0,0-1.81.55.86.86,0,0,0-.13.14,2.76,2.76,0,0,1-.61,2.35,1.12,1.12,0,0,1-1.38.3,1.1,1.1,0,0,0-1.09.1l-.67.45c-.9.61-1.75,1.19-2.24,1.11h0l-.4-.07c-.47-.09-.95-.18-1.43-.25a3.48,3.48,0,0,0-.2.69,2.82,2.82,0,0,1-.47,1.16.17.17,0,0,1-.22.05,2.53,2.53,0,0,1-.8-.9,2.59,2.59,0,0,0-.66-.78,1.47,1.47,0,0,0-.5-.19,1.22,1.22,0,0,1-.69-.33,1.18,1.18,0,0,1-.24-.62,2.7,2.7,0,0,0-.08-.31c0-.07-.32,0-.46.06a1.17,1.17,0,0,1-.8,0,6.61,6.61,0,0,1-1.25-.86,2.66,2.66,0,0,0,.22,1.39,1.15,1.15,0,0,0,.43.47,1.14,1.14,0,0,1,.59,1,2.55,2.55,0,0,1-.19.76,2.77,2.77,0,0,0-.18.66,1.59,1.59,0,0,1,0,.42.82.82,0,0,0,0,.39,3.56,3.56,0,0,1,0,2c0,.12,0,.25,0,.37.2,0,.44,0,.7,0a3,3,0,0,1,1.47.11.68.68,0,0,1,.43.69c-.08.59-.94,1-1.24,1.08-.79.2-.79.2-1.2.86l-.11.17a2.61,2.61,0,0,1-.77.76,1.66,1.66,0,0,0-.66.7,2.56,2.56,0,0,0-.14.36c-.12.4-.25.55-.75.6a2.26,2.26,0,0,1-1-.22,3.56,3.56,0,0,0-.58-.19,2.1,2.1,0,0,1-.89.86,2.44,2.44,0,0,0-.59.44,2.12,2.12,0,0,0-.31.53c-.16.36-.38.82-.81.88h-.06a.2.2,0,0,1-.1-.07.25.25,0,0,1-.05-.19.93.93,0,0,0-.13-.77c-.37-.45-1.46-.15-2.11,0a3.91,3.91,0,0,1-.57.13.13.13,0,0,1-.14-.06.25.25,0,0,1-.06-.17c0-.79-.42-.94-1.16-1.09-.48-.1-1-.2-1.11-.73a3.1,3.1,0,0,1,.23-1.21c.08-.3.17-.63.19-.77s0-.23,0-.35a6.75,6.75,0,0,0,.09-1.25,3.78,3.78,0,0,1-.52-.69c-.11,0-.2.11-.32.26a2.39,2.39,0,0,1-.48.47,2.66,2.66,0,0,1-2,.41.24.24,0,0,1-.13-.28l.06-.4a1.61,1.61,0,0,1-1.69.42c-.36,0-.73-.09-1.09-.12s-.86-.07-1.3-.15a3.1,3.1,0,0,1-.89-.47c-.29-.19-.77-.49-.91-.45s-.41,2.2-.27,2.75.62.67,1.33.72l.31,0c.08,0,.13.06.16.14A3.52,3.52,0,0,1,92,52.91l0,.18a.22.22,0,0,1-.21.2,4.25,4.25,0,0,1-.62-.12,2,2,0,0,0-.84-.11l-.38.08a1.61,1.61,0,0,1-1.18-.06,9.71,9.71,0,0,1-.11,1.35c0,.35-.08.71-.09,1.08A1.74,1.74,0,0,0,89.18,57c.06.08.14.15.21.25,1.59,1.9.44,4.76-.58,7.28a15.45,15.45,0,0,0-1,3.15c-.06.36-.11.81-.16,1.29a9.92,9.92,0,0,1-.92,4,.94.94,0,0,1-1,.46.22.22,0,0,1-.16.18,10.15,10.15,0,0,0-1.26.35,4.34,4.34,0,0,1-2.37.33c-.23,0-.46-.12-.71-.2a2.92,2.92,0,0,0-1.68-.21c-.45.13-.65.48-.92.91l-.28.43a3.11,3.11,0,0,1-1.87,1.21,3,3,0,0,0-1.44.77,8.87,8.87,0,0,0-1.58,3.81c-.07.24-.13.47-.19.69a3.18,3.18,0,0,1-1.38,1.91,4.15,4.15,0,0,0-1,1c-.67,1-.27,3,0,4.17l0,.24a8.37,8.37,0,0,0,.63,1.72A5.12,5.12,0,0,1,72.2,94c0,.18-.1.32-.14.43s-.09.24.09.43a1.46,1.46,0,0,0,.77.36,1.91,1.91,0,0,1,1,.46,2.41,2.41,0,0,1,.56,1.19,4.32,4.32,0,0,0,.19.64,1.62,1.62,0,0,0,1.41.94h.09c1.4.22,2.09-.29,3.06-1.5.25-.3.5-.59.76-.88a.17.17,0,0,1,.19,0,.2.2,0,0,1,.12.17,9.81,9.81,0,0,1-.45,3.76c-.14.58-.28,1.15-.36,1.67a5.64,5.64,0,0,1-.14.6c-.17.71-.26,1.16.08,1.35s.36,0,.57-.26a1,1,0,0,1,.82-.63,3,3,0,0,1,1.58.83l.36.27c.34-.38.9-.19,1.22-.06l.11,0a2.78,2.78,0,0,1,1.2.76l.13.14c.29.32.46.48.77.37a2,2,0,0,0,.77-.73c.36-.48.77-1,1.42-.73a2.48,2.48,0,0,1,.36.23c.3.2.38.26.62-.07a4,4,0,0,0,.32-.52,4.19,4.19,0,0,1,.57-.82l.26-.31a3.46,3.46,0,0,1,.91-.83c.23-.12.46-.21.68-.3a3.84,3.84,0,0,0,1.19-.67.16.16,0,0,1,.1-.05,4.1,4.1,0,0,1,1.63.3l.24.07a1.51,1.51,0,0,0,.84.09,1.59,1.59,0,0,0,.43-.26,1.32,1.32,0,0,1,.87-.33.89.89,0,0,1,.8.4,2.23,2.23,0,0,1,0,1.48l0,.28c-.07.37-.16.94-.47,1.14a.52.52,0,0,1-.54,0l-.11,0a1.28,1.28,0,0,0,.42,1.11c.1.13.21.26.3.4.32.5.21.81-.15,1.29-.17.22-.28.36-.43.42a6.49,6.49,0,0,1,.37,1.38c.07.31.12.61.2.84s.08.33.12.54a2.75,2.75,0,0,0,.21.8,1,1,0,0,0,.38.16,1.63,1.63,0,0,1,.29.1,1.77,1.77,0,0,1,1.25,1.87c0,.08,0,.15,0,.24,0,.28-.08.59,0,.71a.26.26,0,0,0,.24.1.56.56,0,0,1,.23-.25,1.66,1.66,0,0,1,1.47.36,1.65,1.65,0,0,0,.56.37l.2.1a.75.75,0,0,1,.51.69,2.17,2.17,0,0,1,1.57.34l.16.11a7,7,0,0,1,1.19,1.1,1.67,1.67,0,0,1,.2.45,1,1,0,0,0,.19.41c.06,0,.07,0,.15,0a.67.67,0,0,1,.29-.08.74.74,0,0,1,.66.24,1.19,1.19,0,0,1,.08.78,3.13,3.13,0,0,0,0,.44.55.55,0,0,0,.07.33c.06.06.23,0,.39,0a1.19,1.19,0,0,1,.5,0h.06a5.35,5.35,0,0,1,1.37.52,5.45,5.45,0,0,0,.95.41,1.84,1.84,0,0,0,.29.06,1.24,1.24,0,0,1,.66.19.76.76,0,0,1,.27.51.83.83,0,0,0,.06.21,1.87,1.87,0,0,0,.32.45,1.56,1.56,0,0,1,.47,1.2,1.35,1.35,0,0,1-.5,1,1.33,1.33,0,0,0-.29.38,2.83,2.83,0,0,0-.14,1c0,.13,0,.26,0,.39a3,3,0,0,1-.09,1.21,2.18,2.18,0,0,0-.1.89,1.37,1.37,0,0,0,.17.37,1.27,1.27,0,0,1,.26.62,5.23,5.23,0,0,1-.17,1.55l0,.16c0,.13-.07.27-.11.42a1.92,1.92,0,0,0-.14.89,1.29,1.29,0,0,0,.38.45l.23.21a2.67,2.67,0,0,0,1.69.71,6.22,6.22,0,0,1,.75.15,16.89,16.89,0,0,0,2.81.58c.06,0,.14.06.16.16a1.87,1.87,0,0,1-.39,1.61,1.1,1.1,0,0,0-.28.86,3.18,3.18,0,0,0,.22.66,4.91,4.91,0,0,1,.19.53,2.6,2.6,0,0,0,.47,1,1.13,1.13,0,0,0,.59.29l.29.08c.56.2.61.31.56,1a4.12,4.12,0,0,0,.21,1.52A6,6,0,0,1,120,142a3.52,3.52,0,0,1-.63,1.88l-.12.22a5.38,5.38,0,0,1-.9,1.88c-.11.16-.23.33-.32.49a4.09,4.09,0,0,0-.22.39,2.93,2.93,0,0,1-.51.75l-.13.13a1.73,1.73,0,0,0-.4.48,1.4,1.4,0,0,1,.11.4,3.09,3.09,0,0,1-.12,1,3.73,3.73,0,0,0-.1.68,6.49,6.49,0,0,0,.21,1.65c0,.15.07.3.09.45a8.52,8.52,0,0,1-.16,3.26,4.94,4.94,0,0,1-.46,1c-.21.38-.55,1-.47,1.2a1.94,1.94,0,0,0,.49.38,2.28,2.28,0,0,1,.46.33,1.92,1.92,0,0,0,1,.69,12.12,12.12,0,0,1,1.73.56c.43.18.68.26.94-.09a.19.19,0,0,1,.15-.08,1.27,1.27,0,0,1,.57.17,1.07,1.07,0,0,0,.34.14,2.06,2.06,0,0,0,.36,0,.94.94,0,0,1,.88.24,5.25,5.25,0,0,1,1.11,2,3,3,0,0,1,0,.94,4.27,4.27,0,0,0,0,.62c0,.15,0,.29.06.41a2.66,2.66,0,0,1-.09,1.48l0,.06c-.21.63-.77,2.27-.32,2.74.19.21.44.15.81,0a2.14,2.14,0,0,1,.48-.13h.09c.53-.05.72-.07.94-.72a.21.21,0,0,1,.18-.16,2.07,2.07,0,0,1,1.66,1.57,2.66,2.66,0,0,1-.53,1.64,2.74,2.74,0,0,0-.5,1.19.15.15,0,0,1,0,.08c-.06.3-.12.6-.17.92a3,3,0,0,1-.49,1.19l-.15.24-.11.22a1.31,1.31,0,0,1-.35.5.59.59,0,0,1-.27.16c-.08,0-.15.06-.18.11a.81.81,0,0,0-.13.54.68.68,0,0,0,.1.24,1.27,1.27,0,0,1,.18-.27,3.27,3.27,0,0,1,.68-.38,3.78,3.78,0,0,0,.45-.24c.44-.28.81-.45,1.15.28l.18.33a3.16,3.16,0,0,1,.43,1.06,3,3,0,0,1-.18,1.28,5.69,5.69,0,0,0-.15.59,3.79,3.79,0,0,0,0,.95,4.27,4.27,0,0,1,.06.82,1.45,1.45,0,0,1-.41.87,1.65,1.65,0,0,0-.3.46,1.28,1.28,0,0,0,0,.21,1.13,1.13,0,0,1-.06.47.85.85,0,0,1-.27.35l-.1.1-.19.24a1.64,1.64,0,0,1-1.32.82,2.22,2.22,0,0,0-.46.12,1,1,0,0,0-.16.1.73.73,0,0,1-.34.17.63.63,0,0,1-.33-.06.38.38,0,0,0-.13,0,.94.94,0,0,0-.71.08,2.45,2.45,0,0,0-.36.36,2.13,2.13,0,0,1-.63.56,6.79,6.79,0,0,1-.87.38l-.64.22a6,6,0,0,0-.94.35l0,.17a1.61,1.61,0,0,1-.56,1.18l-.22.16a7.47,7.47,0,0,1-1.53.95l-.3.13a2.7,2.7,0,0,0-1.16.69,1.35,1.35,0,0,0-.25.51c0,.11-.07.21-.11.32a5.41,5.41,0,0,1-.66,1.06,3.16,3.16,0,0,1-1.47,1.16,2,2,0,0,0-1.19,1l-.06.1a3.36,3.36,0,0,0-.39.72s0,0,0,0a.17.17,0,0,1,.22.15,1.11,1.11,0,0,0,.34-.15,2.06,2.06,0,0,1,.48-.21,1,1,0,0,1,.67.11,2.29,2.29,0,0,0,.28.09c.21.05.28,0,.46-.17l.15-.12.1-.07c.26-.22.37-.1.51.11l0,.05a3.13,3.13,0,0,1,.19.36.94.94,0,0,0,.29.43l.18.1a.8.8,0,0,1,.51.56,1.36,1.36,0,0,1,0,.7,2,2,0,0,0-.06.37.62.62,0,0,0,.22.39,3.17,3.17,0,0,1,.21.27.77.77,0,0,1-.1,1,2.2,2.2,0,0,1,.43.09l.27.07a.45.45,0,0,0,.25,0l.16-.06a.85.85,0,0,1,.94.32l.19.16a.89.89,0,0,0,.26.14.78.78,0,0,1,.61.81.65.65,0,0,0,0,.27,1.39,1.39,0,0,0,.75.46l.2,0c.46.09.62.16.77.91a2.18,2.18,0,0,0,.46.86l.13.18a5.1,5.1,0,0,0,.62.7,8,8,0,0,1,.65.74,3,3,0,0,0,.46.49,2.47,2.47,0,0,1,.67.8,1.27,1.27,0,0,1,.1.5,1.7,1.7,0,0,0,0,.28c0,.11,0,.12.14.14a.68.68,0,0,1,.25.12.84.84,0,0,1,.28.41.75.75,0,0,0,.09.2,1.63,1.63,0,0,0,.18.14c.19.11.41.24.43.52a.53.53,0,0,1-.07.38.36.36,0,0,1-.32.16s-.07,0-.09,0a.85.85,0,0,0-.29.19,1.55,1.55,0,0,1-.28.2,1.06,1.06,0,0,1-.39.13.52.52,0,0,0-.32.12,1.55,1.55,0,0,0-.22.75v.06a.37.37,0,0,1-.08.18v.19c0,.73,0,1.57.47,2l.17.12h0a.08.08,0,0,1,0,0,.76.76,0,0,0,.57.11,1,1,0,0,0,.26-.39,1.77,1.77,0,0,1,.28-.46,3.73,3.73,0,0,1,.41-.39,2.23,2.23,0,0,0,.52-.58,6.38,6.38,0,0,1,.69-1,4.41,4.41,0,0,0,.25-.43,3.83,3.83,0,0,1,.25-.44,2.78,2.78,0,0,1,.35-.4,1.91,1.91,0,0,0,.38-.48,3.53,3.53,0,0,0,.16-.52,2.72,2.72,0,0,1,.27-.77l0,0a.26.26,0,0,1,0-.21,3.43,3.43,0,0,0,.36-1.12,5.33,5.33,0,0,1,.32-1.12l.08-.15a4.72,4.72,0,0,1,1-1.59,1.62,1.62,0,0,1,1-.22,1.48,1.48,0,0,0,.75-.13,1.53,1.53,0,0,0,.48-.77c.08-.22.18-.44.27-.66s.21-.49.31-.75a4.54,4.54,0,0,0,.29-1.34,1.93,1.93,0,0,0,0-.33,2.12,2.12,0,0,1,.05-.86.26.26,0,0,1,.11-.14.16.16,0,0,1,.15,0,4.3,4.3,0,0,1,1.28,1.33l.39.51a2.72,2.72,0,0,0,.68.59l.05,0a1,1,0,0,1,.42.48,3.48,3.48,0,0,0,1.18-1.62l.15-.32a2.35,2.35,0,0,1,.49-.64,1.4,1.4,0,0,0,.42-.61,1.24,1.24,0,0,0,0-.16,1.06,1.06,0,0,1,.31-.59.81.81,0,0,0,.23-.32,1,1,0,0,1,.07-.17,1.18,1.18,0,0,1,.66-.63,1.3,1.3,0,0,0,.4-.28.91.91,0,0,0,.13-.22,1.38,1.38,0,0,1,.24-.37.89.89,0,0,1,.46-.18l.21,0c.21-.08.28-.21.39-.44s.12-.23.2-.36a1.71,1.71,0,0,0,.21-.35,1.75,1.75,0,0,1,.71-.84l.11-.05.12-.06a1.93,1.93,0,0,0,0-.2c0-.16.06-.32.08-.49l0-.28a.19.19,0,0,0,0-.08,1.13,1.13,0,0,1,.06-.32,1.09,1.09,0,0,1,.14-.23l0-.05c0-.09,0-.23.06-.37a1.64,1.64,0,0,1,.28-.83,1.48,1.48,0,0,1,.44-.43,1.07,1.07,0,0,0,.32-.27c.05-.08.05-.17,0-.38a1.94,1.94,0,0,1,0-.24,1.31,1.31,0,0,1,0-.35,1.83,1.83,0,0,0,0-.21.74.74,0,0,0,0-.18,1.17,1.17,0,0,1,0-.2,6.07,6.07,0,0,1-.09-1.2,1.24,1.24,0,0,1,.19-.58l.09-.19a3,3,0,0,0,.14-.67,1.33,1.33,0,0,0-.06-.42,1.43,1.43,0,0,1,0-.77.71.71,0,0,1,.25-.36.39.39,0,0,0,.09-.11,1,1,0,0,0,0-.12,1.15,1.15,0,0,1,.08-.32c.05-.1.11-.18.15-.25l.09-.11a3,3,0,0,0,.19-.53,3,3,0,0,1,.25-.69l.07-.1a.8.8,0,0,1-.27-.36,1.54,1.54,0,0,1,.05-1.23,1,1,0,0,1,.51-.46l.17-.09a.93.93,0,0,0,.19-.23,1,1,0,0,1,.44-.38c.24-.07.47.11.7.27a1,1,0,0,0,.36.22s0,0,.12-.11a1.77,1.77,0,0,1,.14-.17,2.5,2.5,0,0,1,.38-.35l.18-.16a3.2,3.2,0,0,0,.28-.26,3.58,3.58,0,0,1,.94-.74,2.09,2.09,0,0,1,.23-.08,1,1,0,0,0,.39-.2c.15-.12.29-.26.43-.39l.41-.37.32-.31a1.59,1.59,0,0,1,1-.63h.33a.92.92,0,0,0,.37,0,3.22,3.22,0,0,0,.6-.19l.06,0a2,2,0,0,0,.31-.18,1.47,1.47,0,0,1,.42-.24.17.17,0,0,1,.16,0h0c.05-.11.1-.26.23-.31a.23.23,0,0,1,.23,0,.26.26,0,0,1,.11.15l0,0a.42.42,0,0,1,.25-.17.48.48,0,0,1,.31.08.26.26,0,0,0,.1,0,2.78,2.78,0,0,0,.6.11.87.87,0,0,1,.53.18,1,1,0,0,1,.21.41v0l0,0c.09-.1.13-.15.14-.22a1,1,0,0,0,0-.24,1.09,1.09,0,0,1,.11-.61c.13-.26.34-.71.75-.73a1.19,1.19,0,0,1,.41.08c.18.06.29.1.46,0a1.64,1.64,0,0,0,.21-.23,1.89,1.89,0,0,1,.2-.27,1.53,1.53,0,0,1,.16-.13.65.65,0,0,0,.23-.31,1,1,0,0,1,.51-.67,1.05,1.05,0,0,0,.39-.37l0-.05a1.24,1.24,0,0,1,1-.51,2,2,0,0,0,.46-.08.65.65,0,0,1,.64.08.5.5,0,0,0,.58.09.85.85,0,0,1,.55,0,2.08,2.08,0,0,1,.3.12.85.85,0,0,0,.44.14h.14c.32,0,.81,0,1,.4a1.9,1.9,0,0,1,.11.38c0,.17,0,.24.16.31s.15,0,.27-.06a1.36,1.36,0,0,1,.24-.13,1,1,0,0,1,.48-.05.67.67,0,0,0,.2,0,1.16,1.16,0,0,1,1,.33c.06.06.1.05.2,0a.57.57,0,0,1,.38,0,.81.81,0,0,1,.26.2s.06.07.09.08a5.4,5.4,0,0,1,.65-2,2.78,2.78,0,0,1,.87-1l.18-.11a1.34,1.34,0,0,0,.23-.16,1.25,1.25,0,0,0,.16-.22,1.24,1.24,0,0,1,.42-.43.14.14,0,0,1,.15,0,.22.22,0,0,1,.1.13.18.18,0,0,0,.21.11s0,0,.1-.12a.79.79,0,0,1,.34-.34,1.64,1.64,0,0,1,.38-.1c.18,0,.34,0,.43-.15a1.64,1.64,0,0,0,.13-.74,3,3,0,0,1,.08-.65c.06-.23.09-.45.13-.68s.1-.53.17-.79a3.15,3.15,0,0,1,.21-.51,1.39,1.39,0,0,0,.19-.55,1.23,1.23,0,0,1,.72-1.21,1.67,1.67,0,0,0,.89-.56,4.67,4.67,0,0,1,.49-.5c.11-.1.22-.19.31-.29a3,3,0,0,0,.39-.53c.1-.15.2-.31.31-.45s.43-.49.65-.72.21-.22.3-.33a1.79,1.79,0,0,0,.25-.38,1.76,1.76,0,0,1,.35-.52,3.56,3.56,0,0,0,.72-1.87,8.07,8.07,0,0,0,.07-1.11v-.39a8,8,0,0,1,.4-2l.09-.35a2.91,2.91,0,0,1,.43-1.1,1.38,1.38,0,0,1,.45-.35.87.87,0,0,0,.33-.26l.07-.1a.53.53,0,0,1,.48-.33h.35c.25,0,.25,0,.33-.47l.05-.24a7.36,7.36,0,0,1,.19-.91c.08-.25.17-.49.26-.74s.13-.4.2-.6a8.33,8.33,0,0,0,.25-1.19,7,7,0,0,1,.35-1.55,5.85,5.85,0,0,1,.5-.93,6.14,6.14,0,0,0,.41-.74,5.11,5.11,0,0,0,.31-1.07,7.38,7.38,0,0,1,.19-.78l.05-.19c.2-.61.27-.84-.06-1.34a.44.44,0,0,0-.08-.11.8.8,0,0,1-.2-.5,1.91,1.91,0,0,1,.1-.67c0-.08,0-.16.05-.23a3.67,3.67,0,0,0,0-1v-.28a4.28,4.28,0,0,1,.18-1.21c.06-.25.11-.49.14-.71s.06-.48.1-.71.1-.67.13-1l0-.51a7.73,7.73,0,0,1,.06-.85,13.42,13.42,0,0,1,.33-1.72c.09-.32.16-.64.22-1a1.27,1.27,0,0,0,0-.28,1.76,1.76,0,0,1,.13-.61.2.2,0,0,1,.24-.12,3,3,0,0,1,.72.22,3,3,0,0,0,.62.21l.55.08c.18,0,.34,0,.56.09a1,1,0,0,0,.55,0,2.57,2.57,0,0,0,.44-.59,3.4,3.4,0,0,1,.2-.31,5.42,5.42,0,0,0,1-2,2.26,2.26,0,0,1,.64-1.17,1.17,1.17,0,0,0,.21-.33,2,2,0,0,1,.3-.42,1.26,1.26,0,0,1,.36-.22,1.86,1.86,0,0,0,.57-.36s0,0-.06-.06a.27.27,0,0,1-.07-.21,2.52,2.52,0,0,1,1-2,9.34,9.34,0,0,1,2.6-1.46,2.67,2.67,0,0,0,1.14-.92,3.76,3.76,0,0,0,.31-.49l.15-.25a3.19,3.19,0,0,1,.27-.33,1.67,1.67,0,0,0,.22-.28c.05-.09,0-.15,0-.32a1.67,1.67,0,0,1,0-.34,1.8,1.8,0,0,1,.26-.8l.11-.19a.19.19,0,0,1,.2-.13l.12,0a2.21,2.21,0,0,0,1.84-.62,6.37,6.37,0,0,0,1.77-2,4.65,4.65,0,0,0,.26-1.49,4.48,4.48,0,0,1,.38-1.9,7,7,0,0,0,.48-3.28A7.19,7.19,0,0,1,205.76,104.14Z"/><path class="cls-1" d="M123.11,210.14c0-.14,0-.27,0-.4a.28.28,0,0,1,.12-.24,1.78,1.78,0,0,1,.35-1,.89.89,0,0,1,.53-.23l.28-.07c.08-.05.15-.12.22-.17a1.4,1.4,0,0,1,.39-.26l.16,0a1,1,0,0,0-.19-.14,1,1,0,0,1-.3-.23,1.19,1.19,0,0,1-.14-.31c0-.12-.08-.19-.15-.23a.46.46,0,0,0-.14-.07c-.15,0-.28-.09-.38-.38a1.7,1.7,0,0,1-.08-.44.91.91,0,0,0,0-.31,2.05,2.05,0,0,0-.57-.66,3.45,3.45,0,0,1-.53-.55,4.43,4.43,0,0,0-.61-.69,7.06,7.06,0,0,1-.66-.75l-.13-.18a2.54,2.54,0,0,1-.52-1c-.11-.51-.11-.51-.49-.58l-.21,0a1.63,1.63,0,0,1-1-.62,1.13,1.13,0,0,1-.13-.51.56.56,0,0,0,0-.23c0-.08-.2-.15-.32-.2a1.43,1.43,0,0,1-.35-.18,1.62,1.62,0,0,0-.2-.18c-.22-.22-.35-.34-.62-.25l-.12.05a.66.66,0,0,1-.44,0,2.22,2.22,0,0,1-.31-.07.88.88,0,0,0-.69,0,.16.16,0,0,1-.21,0,.27.27,0,0,1,0-.26,1.57,1.57,0,0,1,.34-.56c.17-.2.18-.21.08-.36a1.28,1.28,0,0,0-.16-.21,1,1,0,0,1-.33-.69,1.69,1.69,0,0,1,.07-.56.91.91,0,0,0,0-.41c0-.14-.14-.2-.3-.29a1,1,0,0,1-.23-.12,1.38,1.38,0,0,1-.43-.6,1.4,1.4,0,0,0-.15-.3l0-.07-.09.08-.14.1a.78.78,0,0,1-.76.25l-.32-.11a.84.84,0,0,0-.49-.08,1.15,1.15,0,0,0-.38.17,1.56,1.56,0,0,1-.62.23.61.61,0,0,1-.28-.06,2.37,2.37,0,0,0-.7,1.59,8.6,8.6,0,0,1-.25,1c-.21.59-.39,1.21-.58,1.8s-.42,1.4-.66,2.08l-.29.79c-.3.82-.6,1.64-.88,2.47-.06.14-.12.3-.17.45a9.43,9.43,0,0,0-.49,1.62,3.87,3.87,0,0,0,0,.69,5.18,5.18,0,0,1-.1.94,6.08,6.08,0,0,1-.27.74c-.22.57-.69,1.75-.51,2,.06.08.22.09.46,0a.17.17,0,0,1,.2.11,5.37,5.37,0,0,1,.29,1,2.66,2.66,0,0,0,.49,1.27,1.65,1.65,0,0,0,1.12.23,2.9,2.9,0,0,1,1,.11,3.18,3.18,0,0,1,1.62,1.29c.42.67.54.69,1.3.83a5.33,5.33,0,0,1,1,.33,4.16,4.16,0,0,0,1.1.32,3.39,3.39,0,0,0,.45,0,3,3,0,0,1,.89.1,1.64,1.64,0,0,1,.42.26.88.88,0,0,0,.34.2c.33.09.61-.11,1-.33a3.5,3.5,0,0,1,.53-.31,5.2,5.2,0,0,1,1-.31,4.91,4.91,0,0,0,.94-.3,4.4,4.4,0,0,0,1.55-1.52,6.39,6.39,0,0,1,1.53-1.58c0-.11.11-.21.16-.32a1.47,1.47,0,0,0,.1-.22l-.09,0A3.2,3.2,0,0,1,123.11,210.14Z"/><path class="cls-1" d="M106.9,207.63a7.28,7.28,0,0,1,.07-.78,10,10,0,0,1,.51-1.72c.06-.15.12-.29.17-.44.29-.83.59-1.66.88-2.47l.29-.79c.24-.67.46-1.37.66-2.05s.37-1.23.58-1.83a7.73,7.73,0,0,0,.23-.92,3,3,0,0,1,.85-1.88,2.43,2.43,0,0,1,.5-1.25l.06-.09a2.48,2.48,0,0,1,1.4-1.23,2.59,2.59,0,0,0,1.28-1,4.34,4.34,0,0,0,.6-1c0-.08.06-.18.09-.27a2,2,0,0,1,.36-.71,3.19,3.19,0,0,1,1.31-.8l.3-.12a7.64,7.64,0,0,0,1.45-.92l.22-.16c.24-.17.29-.38.36-.82,0-.09,0-.21.06-.31a.24.24,0,0,1,.12-.18,5.21,5.21,0,0,1,1.1-.43c.21-.07.42-.13.62-.21a7.67,7.67,0,0,0,.83-.37,2,2,0,0,0,.51-.46,2.45,2.45,0,0,1,.43-.42,1.15,1.15,0,0,1,1-.16.53.53,0,0,1,.2.07l.17,0a1.19,1.19,0,0,0,.18-.1.92.92,0,0,1,.25-.15,2,2,0,0,1,.52-.14,1.86,1.86,0,0,0,.57-.16,1.76,1.76,0,0,0,.51-.51,2.32,2.32,0,0,1,.21-.25.47.47,0,0,1,.14-.14.57.57,0,0,0,.13-.16.75.75,0,0,0,0-.23,1.33,1.33,0,0,1,0-.43,1.94,1.94,0,0,1,.39-.62c.17-.22.28-.35.29-.54a3.62,3.62,0,0,0-.06-.72,4,4,0,0,1,0-1.11,6,6,0,0,1,.16-.68,2.55,2.55,0,0,0,.17-1,3.06,3.06,0,0,0-.38-.89,3.13,3.13,0,0,1-.19-.36c-.17-.37-.24-.37-.65-.11a3.8,3.8,0,0,1-.49.26,2.68,2.68,0,0,0-.6.34,2,2,0,0,0-.44.94l0,.08a12.8,12.8,0,0,1-1.46,3.36c0,.08-.1.16-.14.24a2.71,2.71,0,0,1-.83,1,.94.94,0,0,1-.68,0,1.05,1.05,0,0,0-.33-.06,2.23,2.23,0,0,0-1.16.72,3.47,3.47,0,0,0-.26.33c-.31.43-.54.72-.76.74s-.44-.27-.59-.53a1.09,1.09,0,0,0-.22-.33c-.34-.24-.61,0-1,.42-.87.89-2,.17-2.46-.58-.25-.38-.44-.42-.93-.36a2.51,2.51,0,0,1-1.46-.18,5.5,5.5,0,0,0-1.11-.29,3.77,3.77,0,0,1-1.61-.57l-.13-.1-.31-.23a.22.22,0,0,1-.1-.2.32.32,0,0,1,.1-.21,2.89,2.89,0,0,1,.87-.37c.53-.16,1.07-.32,1.16-.78a2,2,0,0,0,0-.64,2.82,2.82,0,0,1,0-.92,1.5,1.5,0,0,1,1.09-1.2c.37-.14.43-.29.64-.78l0-.08a3.72,3.72,0,0,1,1.07-1.38,1.53,1.53,0,0,0,.55-.92,1.3,1.3,0,0,0-.26-.91.22.22,0,0,0-.14-.09l-.18-.06a1.15,1.15,0,0,1-.54-.65,2,2,0,0,0-.86-.7c-.15-.09-.3-.17-.43-.26s-.4-.3-.6-.46a6.7,6.7,0,0,0-1.06-.76,8.89,8.89,0,0,1-2.3-1.78l-.12-.13a2.21,2.21,0,0,0-1.1-.76c-.62-.13-1.56-.33-1.69-1.58,0-.13,0-.26,0-.38,0-.31,0-.42-.22-.54a1.27,1.27,0,0,0-.63-.06,1.49,1.49,0,0,1-.83-.09,3.33,3.33,0,0,1-1.32-1.53c-.11-.21-.23-.41-.35-.6a1,1,0,0,0-.41-.35,2,2,0,0,1-.36-.27,4.21,4.21,0,0,1-.9-1.73c-.06-.15-.11-.3-.16-.45s-.19-.49-.31-.76a7.49,7.49,0,0,1-.76-2.54v0a3,3,0,0,1-2.33-.15,5.45,5.45,0,0,0-1-.27,1.6,1.6,0,0,0-1.44,1,2.82,2.82,0,0,0-.22.82c-.12.64-.25,1.44-1,1.58h-.11a2.48,2.48,0,0,1-1.33-1.15,2.27,2.27,0,0,1,.18-1.35,4.76,4.76,0,0,0,.21-.8l-.2,0a2.08,2.08,0,0,0-.71-.05,3.5,3.5,0,0,1-2.09-.23,6.54,6.54,0,0,1-1.63-1.42c-.19.65-.61,1.21-1.14,1.22a1.1,1.1,0,0,1-.58-.23c-.18-.11-.31-.19-.44-.17a4.12,4.12,0,0,1-1.56,2,2,2,0,0,0-.16,1.06,3,3,0,0,1-.14,1.21,11.67,11.67,0,0,1-.83,1.7l-.45.82,0,.09a1.92,1.92,0,0,1-.84,1l-.33.16-.54.27c-.78.36-1.6.75-2.55,1.23l-.16.07c-.15.06-.45.19-.48.32s.11.41.2.58a2.1,2.1,0,0,1,.13.26,2.47,2.47,0,0,1-.36,1.93,6.3,6.3,0,0,0-.3.69l-.08.25a3.74,3.74,0,0,0-.26,1.15,2.32,2.32,0,0,0,0,.46,2.84,2.84,0,0,1,0,.92,5.9,5.9,0,0,1-.19.67,3.9,3.9,0,0,0-.18.62.67.67,0,0,0,.14.59l.09.18a3.5,3.5,0,0,1,.33.92l.06.18a1.16,1.16,0,0,1,0,.85.63.63,0,0,1-.51.31,2.25,2.25,0,0,1-.82,0,2.28,2.28,0,0,0-.63,0c-.14,0-.35.52-.46.78a3.08,3.08,0,0,1-.19.4A4.94,4.94,0,0,1,73,178a3.51,3.51,0,0,0-.89,1.16c-.14.23-.27.47-.43.69-.46.66-.8,1.17-1.11,1.68a3.89,3.89,0,0,0-.3.69,3.09,3.09,0,0,1-.46.95l-.1.13a2.78,2.78,0,0,0-.39.62,2.6,2.6,0,0,0-.08.86c0,.16,0,.32,0,.48a5.21,5.21,0,0,1-.09.59,2.24,2.24,0,0,0-.07.55,1.74,1.74,0,0,0,.08.5,2.14,2.14,0,0,1,.09.34,1.85,1.85,0,0,1-.17,1.45.66.66,0,0,1-.78.17l-.16-.07c-.17-.07-.42-.18-.5-.07s0,.33,0,.48a2,2,0,0,1,0,.35,2.7,2.7,0,0,1-1.37,2.3,1.18,1.18,0,0,1-.31.08c-.29.05-.32.07-.33.28s0,.27,0,.41a3.56,3.56,0,0,0,0,1.54l.16.32a2.19,2.19,0,0,1,.33,1,8.33,8.33,0,0,1,0,.89,3.7,3.7,0,0,0,0,1.15,5.61,5.61,0,0,1,.07,2,.65.65,0,0,0,.13.62,1.73,1.73,0,0,1,.29.54,8.08,8.08,0,0,1,.43,1.51,3.64,3.64,0,0,1-.43,2.22,5.64,5.64,0,0,0-.21.62,4.09,4.09,0,0,1-.33.9,9.78,9.78,0,0,1-1,1.38,6.12,6.12,0,0,0-1.3,2.18,8.43,8.43,0,0,0-.19.9,1.82,1.82,0,0,0,.06.85,3.46,3.46,0,0,1,.1.7,3.13,3.13,0,0,1-1.08,2.21,2.53,2.53,0,0,1-1.21.63,4.06,4.06,0,0,0-.73.28c-.34.2-.51,1-.62,1.51l-.08.35a6.35,6.35,0,0,0-.22,2.43,12.47,12.47,0,0,1,.28,2.27c0,.2,0,.38,0,.56a4.15,4.15,0,0,1,0,1.22l0,.09a3.43,3.43,0,0,1-.61,1.62.82.82,0,0,1-.86.12c-.18,0-.34-.09-.47,0-.29.17-.46.88-.51,1.44l0,.15a1.12,1.12,0,0,1-.35.85,4.28,4.28,0,0,0-.93,2.11,2.1,2.1,0,0,1-1.09,1.52c-.28.2-.28.2-.21.57a3.55,3.55,0,0,1,.06,1.47,6.82,6.82,0,0,1-.32,1.15,3.19,3.19,0,0,0-.28,1.64,3.68,3.68,0,0,1-.07,1.15l0,.19c0,.14,0,.31,0,.48,0,.58-.09,1.3-.52,1.57l-.23.12a.84.84,0,0,0-.38.33,3.91,3.91,0,0,0-.41,1c0,.12-.08.23-.11.35a2.79,2.79,0,0,1-.15.3c-.09.16-.1.19-.07.27a1.1,1.1,0,0,0,.28.3,2.18,2.18,0,0,1,.33.35c.28.45.91,1.59.65,2.31a.81.81,0,0,1-.54.49,3.17,3.17,0,0,0,.08.82,2.8,2.8,0,0,1,0,1.38l0,.12a2.27,2.27,0,0,0-.16,1.21.46.46,0,0,0,.36.25,1.59,1.59,0,0,0,.65,0c.47-.08,1-.17,1.33.62a1,1,0,0,1,0,.81c-.2.48-.8.6-1.23.7l-.24.05-.28.09a2.33,2.33,0,0,1-.47.14.86.86,0,0,1,.69,1.07c0,.17-.21,1.75-.8,2.08a.43.43,0,0,1-.45,0c0,.07-.05.13-.08.19a3.39,3.39,0,0,0-.29.74,1.61,1.61,0,0,0,0,.39.51.51,0,0,1-.05.43.41.41,0,0,1-.4.14c0,.29-.06.57-.08.87s0,.46-.06.69a3.11,3.11,0,0,1-.07.44,3.33,3.33,0,0,0-.07.81.32.32,0,0,1,0,.19.21.21,0,0,1-.13.1h-.1c-.31.05-.52.1-.61.31s0,.2,0,.38a1.57,1.57,0,0,1,.1.26,1.83,1.83,0,0,1,0,1.18,1.29,1.29,0,0,1-.78.53,1.34,1.34,0,0,0-.48.23,2.71,2.71,0,0,0-.71,1.65,4.75,4.75,0,0,0,0,.64,2.53,2.53,0,0,1-.28,1.41c-.09.18-.17.36-.25.53a2.85,2.85,0,0,1-1.49,1.76,3.22,3.22,0,0,1-1.07.12c-.59,0-1.2,0-1.51.39a3.26,3.26,0,0,0-.34.64,5.33,5.33,0,0,1-.37.72l-.09.14a3.86,3.86,0,0,1-.65.8,4.07,4.07,0,0,1,.68,2.22,9.7,9.7,0,0,0,.2,1.28l0,.08c.15.59.25.94.62,1.07a1.38,1.38,0,0,0,.9-.2,1.52,1.52,0,0,1,1-.21c1,.34.69,1.77.45,2.71a4.85,4.85,0,0,0-.19.92c0,.31,0,.61,0,.91a11.22,11.22,0,0,1,0,1.16c0,.64,0,.64.39.87l.13.07.54.33c.86.54,2.15,1.37,2.69.6a.23.23,0,0,1,.16-.1,10.49,10.49,0,0,1,4.39.85,1.6,1.6,0,0,1,.88.81,7.17,7.17,0,0,1,1.37.32q.63.19,1.29.33a6.76,6.76,0,0,0-.28-2.77c-.09-.31-.21-.61-.31-.9a6,6,0,0,1-.48-1.89c-.08-1.17.9-1.82,1.75-2.38a5.15,5.15,0,0,0,1-.81,1.59,1.59,0,0,0,.12-.16l-.19-.11a3.79,3.79,0,0,0-1-.39.22.22,0,0,1-.16-.22.53.53,0,0,1,.13-.39c.26-.28.81-.15,1.55.05l.24.07a.25.25,0,0,1,0-.21A.19.19,0,0,1,61,275a7.22,7.22,0,0,1,1,.14l.34.06h0a.5.5,0,0,0,.4-.07c.1-.09.15-.32.19-.77a2.09,2.09,0,0,0,0-.56,2,2,0,0,1,.1-1.18,3.31,3.31,0,0,1,.82-1l.29-.28a7.24,7.24,0,0,1,.91-.8l.46-.37a4.31,4.31,0,0,0,.37-.37,2.57,2.57,0,0,1,.7-.61,8.08,8.08,0,0,1,2.41-.67l.71-.14.23,0c.16,0,.54-.06.6-.18a.32.32,0,0,0,0-.21c0-.09-.23-.16-.37-.21s-.5-.19-.58-.48a.86.86,0,0,1,.11-.6.2.2,0,0,1,.19-.12l.29.05c.24.05.86.19,1,0a1.67,1.67,0,0,0,0-.23.81.81,0,0,1,.08-.58,1.31,1.31,0,0,1,.2-.28c.06-.09.17-.22.17-.29h-.1l-.25-.06a1,1,0,0,1-.31-.32c-.08-.11-.13-.18-.2-.19a.64.64,0,0,0-.31,0,1,1,0,0,1-.57-.08,2.83,2.83,0,0,1-.85-.79,4.44,4.44,0,0,0-.63-.6l-.07-.07a3.57,3.57,0,0,1-.28-.27,1.2,1.2,0,0,0-.61-.45h0a.18.18,0,0,1-.15-.17l0-.23a6.57,6.57,0,0,0-.55-1.94l-.14-.2a1.79,1.79,0,0,1-.36-.84,2.24,2.24,0,0,1,.48-1.34l.22-.4a2.66,2.66,0,0,1,.45-.71l.21-.23a2.82,2.82,0,0,1,.62-.57l.3-.25a2.7,2.7,0,0,1,.5-.37,1.55,1.55,0,0,1,.86-.08l.34,0a2.82,2.82,0,0,0,.47-.07,2,2,0,0,1,.48-.07l.37,0,.84,0,.34-.07a2.39,2.39,0,0,1,1.06-.06,4.44,4.44,0,0,1,.19-.6c.09-.22.19-.43.29-.64l.17-.39a8.46,8.46,0,0,0,.68-2.08c0-.18,0-.36,0-.53a3.3,3.3,0,0,1,.13-1c.1-.28.35-1,.82-1.06a1.72,1.72,0,0,1,.33,0,.47.47,0,0,0,.49-.14l.21-.2a5.22,5.22,0,0,1,.82-.67,2.4,2.4,0,0,1,1.35-.55h.11c.25,0,.28,0,.3-.09s0-.21-.3-.4a.86.86,0,0,1-.23-.17,1.47,1.47,0,0,1-.46-1.16.29.29,0,0,1,.07-.18.19.19,0,0,1,.15-.07,9.24,9.24,0,0,1,1.57.29l-.16-.12-.35-.33a3.09,3.09,0,0,0-.69-.54,3.08,3.08,0,0,1-.86-.59.93.93,0,0,1-.16-.18c-.16-.18-.31-.35-.48-.34a.2.2,0,0,1-.17-.11.31.31,0,0,1,0-.25,2,2,0,0,0,0-.95c0-.39-.08-.77-.1-1.22a3.73,3.73,0,0,0,0-.48,4.17,4.17,0,0,1,0-.72,3.57,3.57,0,0,1,.42-1.5,4.71,4.71,0,0,0,.32-.86.35.35,0,0,1,.12-.17.17.17,0,0,1,.18,0,9.37,9.37,0,0,1,.8.73,5.2,5.2,0,0,0,1.37,1.06,8.73,8.73,0,0,1,1,.61,5,5,0,0,0,1.45.76,4.26,4.26,0,0,0,3-.21,4.81,4.81,0,0,0,2.47-1.8,5.12,5.12,0,0,0,.49-1.55l.06-.24a7.32,7.32,0,0,1,.5-1.5,3.63,3.63,0,0,0,.24-1.08,3.26,3.26,0,0,0,0-.33c0-.09,0-.18,0-.26.07-.37.09-.5,0-.62l-.1-.1a.92.92,0,0,1-.31-.43,1.33,1.33,0,0,1,0-.43,1.28,1.28,0,0,0,0-.21.85.85,0,0,0-.3-.46l-.14-.15a.28.28,0,0,1,0-.27.23.23,0,0,1,.2-.16,1.77,1.77,0,0,1,1,.51l.25.19a1.34,1.34,0,0,0,1,.32,16.28,16.28,0,0,1,3.21.37l1.19.2.15,0a3.74,3.74,0,0,0,.88.07,6.26,6.26,0,0,0,.81-.14,4.19,4.19,0,0,1,.69-.13l.32-.05a6.14,6.14,0,0,0,1.28-.23,5.8,5.8,0,0,1,1.45-.22l.3,0a4.31,4.31,0,0,0,.85-.14c.24,0,.49-.11.73-.14l.36,0a2.93,2.93,0,0,0,1.23-.3l.33-.22c.16-.1.32-.21.49-.3l.16-.06a.58.58,0,0,0,.26-.15.79.79,0,0,0,.12-.29,2.24,2.24,0,0,1,.11-.31,3.25,3.25,0,0,1,.63-.87c.25-.25.48-.54.71-.81s.4-.48.61-.71.23-.24.34-.37a8.57,8.57,0,0,0,.8-.89,3.78,3.78,0,0,0,.58-1.31l.09-.3a2.32,2.32,0,0,0,.09-.65,3.31,3.31,0,0,1,.06-.53,1.21,1.21,0,0,0-.51,0,2.19,2.19,0,0,1-.57,0,.19.19,0,0,1-.14-.16,1.31,1.31,0,0,0-.38-.54,2.66,2.66,0,0,1-.32-.35,2.27,2.27,0,0,1-.3-.71,1.14,1.14,0,0,0-.06-.15,1.3,1.3,0,0,1-.16-.59.72.72,0,0,1,.39-.51s.09-.06.12-.1a.67.67,0,0,0,.2-.32l0-.14a.67.67,0,0,1,.5-.44c.13,0,.15,0,.18-.12a1.08,1.08,0,0,0-.1-.78l0-.05c0-.08-.06-.18-.09-.28a1.2,1.2,0,0,0-.17-.46,1.43,1.43,0,0,0-.48-.25.32.32,0,0,1-.29,0,1,1,0,0,1-.31-.43,1.3,1.3,0,0,0-.12-.21,3,3,0,0,0-.51-.43.43.43,0,0,0-.2-.07.77.77,0,0,1-.32-.13,1.18,1.18,0,0,1-.26-.29,1.2,1.2,0,0,0-.18-.2,1.45,1.45,0,0,1-.51-.78,3.29,3.29,0,0,0-.23-.39,2,2,0,0,1-.32-.63,1.74,1.74,0,0,1,.17-1.2,1.13,1.13,0,0,1,.68-.57,5.55,5.55,0,0,1,.55-2.21,6.66,6.66,0,0,0,.24-.66A4.3,4.3,0,0,0,106.9,207.63Z"/><g id="Capa_2-2" data-name="Capa 2" class="cls-2"><g id="Capa_1-2" data-name="Capa 1-2"><path class="cls-3" d="M99.12,64.42a90.67,90.67,0,1,0,90.73,90.67A90.79,90.79,0,0,0,99.12,64.42m88.11,90.67a88.47,88.47,0,0,1-.53,9.62H174.24c-23.22,0-43-13.61-50.31-32.54q6.45.74,12.34,1c7.83,11.73,21.93,19.62,38,19.62h12.92c0,.75,0,1.5,0,2.26m-16.13,50.75a34.52,34.52,0,0,1-10.31-5l-.68-.48-.68.48a33.63,33.63,0,0,1-39.34,0l-.68-.48-.67.48a33.66,33.66,0,0,1-39.34,0l-.68-.48-.68.48a33.66,33.66,0,0,1-39.36,0l-.66-.47-.68.46a35.68,35.68,0,0,1-10.3,4.83,88.59,88.59,0,0,1-6.71-11.19h3.78a82.52,82.52,0,0,0,20.64-2.6,36,36,0,0,0,33.95-3.64,36.38,36.38,0,0,0,20.65,6.32,35.55,35.55,0,0,0,20-6.3,36,36,0,0,0,34.06,3.58,82.2,82.2,0,0,0,20.82,2.65l3.6,0a88.28,88.28,0,0,1-6.8,11.31M162,216.68s-10.6,5.52-22.27,5.52-15.6-3.45-19.67-6.34l-.68-.48-.68.48a33.68,33.68,0,0,1-39.33,0l-.68-.48-.65.48a33.56,33.56,0,0,1-19.67,6.34,50,50,0,0,1-22.21-5.59,87.78,87.78,0,0,1-7.65-8.92A38.46,38.46,0,0,0,38,203.23a36,36,0,0,0,40.71,0,36.38,36.38,0,0,0,20.65,6.3,35.6,35.6,0,0,0,20-6.29,36,36,0,0,0,40.7,0,36.84,36.84,0,0,0,9.51,4.6,88.87,88.87,0,0,1-7.61,8.84m-4.4,4.2a88.59,88.59,0,0,1-24.84,15.58,34.41,34.41,0,0,1-12.69-5.61l-.68-.48-.68.48a33.68,33.68,0,0,1-39.33,0l-.68-.48-.66.48a34.13,34.13,0,0,1-12.58,5.6A88.38,88.38,0,0,1,41,221.19a1.49,1.49,0,0,1-.21-.22l.07.05c6.76,3.4,17.52,3.53,17.52,3.53a35.77,35.77,0,0,0,20.34-6.31,36.54,36.54,0,0,0,20.65,6.3,35.61,35.61,0,0,0,20-6.3c4.4,3,7.47,6.31,20.36,6.31s17.85-3.67,17.85-3.67M11,155.09c0-.76,0-1.51,0-2.26H24c19.26,0,35.66-11.26,41.89-27a10.4,10.4,0,0,0,.57-1.9q4.91.19,10,.67a9.85,9.85,0,0,1-.19,1.23c-5,22.14-26.5,38.84-52.22,38.84H11.54a88.47,88.47,0,0,1-.53-9.62m165-43a16.19,16.19,0,0,1-1.55.63c-18.65,6.57-42,6.41-75.52-.51-29.77-6.14-56.3-5.66-75.06,1.31a18.48,18.48,0,0,0-3.1,1.34,89,89,0,0,1,9.49-14.61c17.85-5,42.22-4.86,68.37.54,17.34,3.58,32,5.37,44.73,5.37A100.72,100.72,0,0,0,170,102.88a88.23,88.23,0,0,1,6,9.2M23.86,116c18.16-7,45.25-7.57,74.59-1.51,17.33,3.58,32,5.37,44.72,5.37,11.89,0,22-1.52,31.25-4.67.89-.31,1.87-.74,2.66-1.08a88.5,88.5,0,0,1,4.07,8.86,25.77,25.77,0,0,1-6.72,3.4c-18.59,6.46-41.83,6.26-75.19-.63-29.93-6.18-56.6-5.65-75.38,1.43a55.06,55.06,0,0,0-9.73,4.7A86.7,86.7,0,0,1,19,118.44,35.31,35.31,0,0,1,23.86,116m161.4,20.53h-11a33.27,33.27,0,0,1-16-4,86.91,86.91,0,0,0,16.16-3.66,29,29,0,0,0,7.59-3.58,88.06,88.06,0,0,1,3.24,11.28M99.08,177.23a33.77,33.77,0,0,1-18.57-5.57,67.74,67.74,0,0,0,18.7-34.54,67.61,67.61,0,0,0,18.58,34.42,33.49,33.49,0,0,1-18.7,5.69m20.32-3.95.09-.07a77.69,77.69,0,0,0,30.1,17.54,33.41,33.41,0,0,1-9.83,1.48,33.89,33.89,0,0,1-19.68-6.34l-.69-.48-.68.48a33.68,33.68,0,0,1-39.33,0l-.68-.48-.66.46a33.68,33.68,0,0,1-29.39,4.92,77.76,77.76,0,0,0,30.12-17.48,36.49,36.49,0,0,0,20.57,6.23,35.61,35.61,0,0,0,20-6.3M23.86,129.66a89.89,89.89,0,0,1,25.42-5.38,6.13,6.13,0,0,1-1,1.59A32.39,32.39,0,0,1,24,136.53H13c.11-.53.24-1.07.36-1.61a66.63,66.63,0,0,1,10.51-5.26m-11.35,9.22H24a34.5,34.5,0,0,0,27.36-13,4.3,4.3,0,0,0,.88-1.79c3.8-.22,7.75-.28,11.82-.18a17,17,0,0,1-.69,2C57.21,140.25,41.9,150.49,24,150.49H11.13a87,87,0,0,1,1.38-11.61M24,167.05c27,0,49.6-17.75,54.6-41.18a6.54,6.54,0,0,0,.13-1q4.22.45,8.53,1.1C84.37,155.5,57.1,178.72,24,178.72H14.25a87.51,87.51,0,0,1-2.4-11.67Zm-.06,14c34.28,0,62.49-24.08,65.63-54.72q4.14.68,8.35,1.52c-1.86,35.73-34.22,64.29-73.82,64.29H19.21a88.22,88.22,0,0,1-4.29-11.09Zm150.3,11.09c-39.41,0-71.65-28.29-73.79-63.77,3,.59,5.86,1.14,8.67,1.63,4.92,28.87,32.23,51.05,65.12,51.05h9A89.72,89.72,0,0,1,179,192.15Zm0-13.43c-31.43,0-57.56-20.92-62.69-48.29,3.35.56,6.59,1,9.73,1.43,7.27,20.4,28.23,35.2,52.89,35.2H186.4A87.67,87.67,0,0,1,184,178.72Zm0-28.24c-14.63,0-27.52-6.82-35.09-17.16,1.46.05,2.9.07,4.32.07,3.82,0,7.47-.16,11-.49a35.31,35.31,0,0,0,19.8,6h11.45a87.34,87.34,0,0,1,1.38,11.61ZM143.35,79a88.35,88.35,0,0,1,15.11,11.1c-16,2.13-35.28.57-59.71-4.64-17.09-3.67-33.19-5.07-47.37-4.3A87.76,87.76,0,0,1,75.71,70.2a206.81,206.81,0,0,1,22.57,3.38C115.63,77.16,130.29,79,143,79h.33m-4.4-2.4c-11.61-.33-24.83-2.08-40.19-5.25q-8.23-1.69-16.1-2.72a88.14,88.14,0,0,1,56.3,8M47.62,83.7c14.86-1.26,32.15.06,50.65,4,17.51,3.74,32.46,5.62,45.46,5.62a111.08,111.08,0,0,0,16.9-1.22,88,88,0,0,1,7.86,8.75c-17.59,4.6-39.43,3.82-69.41-2.37-25.36-5.24-48.37-5.66-66.23-1.36A88.8,88.8,0,0,1,47.62,83.7M69.15,237.89a37.39,37.39,0,0,0,9.57-4.66,36.51,36.51,0,0,0,20.65,6.3,35.63,35.63,0,0,0,20-6.3,37.12,37.12,0,0,0,9.65,4.67,88.2,88.2,0,0,1-59.91,0"/></g></g><path class="cls-4" d="M76.09,135.56c.09,0,.29.11.33.07a2.28,2.28,0,0,0,.21-.6,4.11,4.11,0,0,1,.21-.62l.15-.27a3.88,3.88,0,0,0,.22-.46,1,1,0,0,0,.05-.16,1.36,1.36,0,0,1,.2-.47.73.73,0,0,1,.87-.3,3,3,0,0,1,.27-1.93,4.89,4.89,0,0,1,2-2.09c.35-.22.35-.22.38-.72a2.58,2.58,0,0,0-.09-1.13,5,5,0,0,0-.45-.85,2.83,2.83,0,0,1-.62-2,1.09,1.09,0,0,1,.92-.94,1,1,0,0,0,.33-.13,2.36,2.36,0,0,1-.41-2.12.22.22,0,0,1,.18-.19c1-.18,1.32-.88,1.65-2.31a2.1,2.1,0,0,0,0-.9,2.77,2.77,0,0,1-.09-.89,1.51,1.51,0,0,1,.56-1,2.2,2.2,0,0,0,.33-.36,3,3,0,0,0,.34-1.52,3.15,3.15,0,0,1,.44-1.8c.63-.92.52-1.14.15-1.87-.08-.17-.18-.36-.27-.58a10.22,10.22,0,0,1-.61-2.24,12.08,12.08,0,0,0-.42-1.75,2.78,2.78,0,0,0-.12-.26,1.89,1.89,0,0,1-.26-1l-.38-.28c-.45-.36-1-.78-1.38-.76-.22,0-.34.17-.51.43s-.39.59-.76.53a1.06,1.06,0,0,1-.29-.11c-.65-.38-.42-1.27-.26-1.92a4.34,4.34,0,0,0,.12-.53c.09-.57.24-1.16.38-1.74a11.39,11.39,0,0,0,.48-3.09c-.16.18-.31.36-.46.55-1,1.27-1.86,1.88-3.41,1.65l-.09,0a2,2,0,0,1-1.68-1.17,5.23,5.23,0,0,1-.22-.71,1.88,1.88,0,0,0-.44-1,1.68,1.68,0,0,0-.81-.37,1.78,1.78,0,0,1-.93-.46.81.81,0,0,1-.17-1,3,3,0,0,0,.12-.36,4.69,4.69,0,0,0-.64-3,8.83,8.83,0,0,1-.66-1.82l0-.24c-.28-1.38-.7-3.45.12-4.63a4.36,4.36,0,0,1,1.11-1.09,2.72,2.72,0,0,0,1.2-1.62c.06-.22.11-.44.17-.68a9.66,9.66,0,0,1,1.72-4.06,3.42,3.42,0,0,1,1.61-.87,2.83,2.83,0,0,0,1.66-1c.09-.13.17-.27.25-.39a2.09,2.09,0,0,1,1.17-1.11,3.08,3.08,0,0,1,1.86.21c.24.07.46.15.68.19a3.81,3.81,0,0,0,2.21-.32c.3-.1.62-.18.94-.26A6.63,6.63,0,0,1,84,72.23a5.19,5.19,0,0,0-.41-.35.27.27,0,0,1-.08-.21A4.4,4.4,0,0,1,85,69.05l.16-.17a14.75,14.75,0,0,1,1.39-1.33,6,6,0,0,1-2.12-1.34,2.35,2.35,0,0,0-1.28-.82,4.21,4.21,0,0,0-.81-.07,4.07,4.07,0,0,1-.85-.07,1.26,1.26,0,0,1-.57-.39c-.15-.16-.23-.24-.33-.22a1.11,1.11,0,0,0-.19.27,1.15,1.15,0,0,1-.43.49,1,1,0,0,1-.73,0l-.14,0a4.22,4.22,0,0,1-.67-.26,2.83,2.83,0,0,0-.66-.26,1.74,1.74,0,0,0-.4,0c-.41,0-.92,0-1.12-.53a1.82,1.82,0,0,1,0-.87,1.92,1.92,0,0,0,0-.76A3.7,3.7,0,0,0,76,62.1a3.23,3.23,0,0,1-.34-.9,2.65,2.65,0,0,1,0-1.17c0-.13,0-.28.07-.43a6,6,0,0,1-2.39-1.46,3.91,3.91,0,0,1-.7-2.43l0-.15c-.07-1-.53-1.23-1.22-1.61l-.15-.09a9.67,9.67,0,0,0-1.44-.4c0,.14.07.28.11.41a3.66,3.66,0,0,1,.21,1.74,9.48,9.48,0,0,1-.3,1.4,1.14,1.14,0,0,1-.51.75,1,1,0,0,0-.23.17,1.89,1.89,0,0,0-.42.85,3.34,3.34,0,0,1-.56,1.16c-.11.15-.22.3-.33.43a4.12,4.12,0,0,1-1.45,1.39,8.31,8.31,0,0,0-1.11.71,9.25,9.25,0,0,1-1.34.82,4.35,4.35,0,0,1-1.66.27,5,5,0,0,0-1,.08,1.67,1.67,0,0,0-1.27.91,2,2,0,0,1-.32.45,1.15,1.15,0,0,1-.57.29.77.77,0,0,0-.39.17,2.6,2.6,0,0,0-.35.71,3,3,0,0,1-.15.38,18.59,18.59,0,0,1-1,1.71,15.69,15.69,0,0,0-.84,1.45,5.14,5.14,0,0,0-.31.88,3.21,3.21,0,0,1-.86,1.71l-.27.1a.9.9,0,0,0-.23.08.17.17,0,0,1-.19,0l-.26-.18h0c0,.25.08.49.13.73a.3.3,0,0,1,0,.21.22.22,0,0,1-.15.12.5.5,0,0,1-.21,0c-.66-.11-1.46-1.22-2.23-2.38-.13-.2-.24-.37-.33-.48-.41-.57-.65-.82-1.21-.93l-.27,0c-.31-.06-.53-.11-.62,0a1.88,1.88,0,0,0-.2.72.26.26,0,0,1-.21.23.21.21,0,0,1-.18-.23c0-.18,0-.37,0-.55a4.39,4.39,0,0,1,0-1.25c.13-.59.16-.71.52-.85a1.61,1.61,0,0,0,.28-.13l.25-.1c.69-.32,1.22-.61,1.1-1.29a2.71,2.71,0,0,0-.26-.68,2.92,2.92,0,0,1-.28-.74,1.58,1.58,0,0,1-.6.85,2.31,2.31,0,0,1-1.94,1.37,2.41,2.41,0,0,0-1.42.66c-.64.68-.76,2.39-.6,3.67a4.93,4.93,0,0,0,.59,1.39c.46.88,1,1.79.63,2.5a1.22,1.22,0,0,1-.8.64,1,1,0,0,0-.57.38.63.63,0,0,0-.09.44,1,1,0,0,0,.63.59,1.87,1.87,0,0,0,.68.1,1.68,1.68,0,0,1,1.09.32,3.68,3.68,0,0,1,.79,1.7c.05.2.11.4.16.57.53,1.52,1,2.8,1.34,4.31a13.15,13.15,0,0,0,1.17,2.77c.2.38.4.77.57,1.15.09.2.19.38.29.57a4.64,4.64,0,0,1,.56,1.3,5.78,5.78,0,0,1,0,1.81c0,.3-.06.59-.07.87a12.42,12.42,0,0,0,.9,4.86,1.79,1.79,0,0,0,.44.47,1.92,1.92,0,0,1,.64.84,4.18,4.18,0,0,1,0,1.8,6.18,6.18,0,0,0-.08.8,5.07,5.07,0,0,0,1.75,3.29,5.26,5.26,0,0,1,1.13,2.92c0,.26.09.52.14.76a8,8,0,0,1-.12,4,6.16,6.16,0,0,0,0,3.89,3.06,3.06,0,0,0,1,1.28,4.73,4.73,0,0,1,.82.89l.24.36a11.43,11.43,0,0,0,1.9,2.37,12.28,12.28,0,0,1,1.25,1.36,8.87,8.87,0,0,0,1.35,1.44A7.65,7.65,0,0,1,65.21,125a4.9,4.9,0,0,0,1.62,1.43l.62.26A4.19,4.19,0,0,1,70,128.76a8.32,8.32,0,0,1,.31,1,2.81,2.81,0,0,0,.69,1.45l.17.16a3.55,3.55,0,0,1,1.07,1.42.67.67,0,0,1,.49.34.61.61,0,0,0,.24.24.82.82,0,0,0,.29.09,1,1,0,0,1,.66.37c.16.23.3.47.45.71l.13.22.15.19a1.48,1.48,0,0,1,.31.53,1.13,1.13,0,0,1,0,.26,1.47,1.47,0,0,1,.71-.24A.89.89,0,0,1,76.09,135.56Z"/><path class="cls-5" d="M39.11,275.1a.38.38,0,0,1,0-.15.48.48,0,0,1-.3.31.42.42,0,0,1-.42-.17.19.19,0,0,0-.08-.08s0,0-.05.07-.24.38-.54.21a.68.68,0,0,1-.26-.3s0,0,0,0c0,.2-.08.41-.13.62a3.12,3.12,0,0,1-.15.39,1.46,1.46,0,0,0-.12.33c0,.1,0,.14.26.27a.92.92,0,0,1,.45.29.88.88,0,0,1,.12.2c0,.09,0,.12.1.15a.39.39,0,0,0,.2.06,1,1,0,0,1,.3.1l.1.06s0,0,.08,0a.67.67,0,0,0,0-.07,1.68,1.68,0,0,0,.1-.73,4.12,4.12,0,0,1,0-.51c0-.26.08-.39.26-.47a.19.19,0,0,0,.08-.05c.06-.07.06-.15,0-.45Z"/><path class="cls-5" d="M44.49,250.23a1.19,1.19,0,0,1,.27,1,1.32,1.32,0,0,1-.4.63,1.26,1.26,0,0,0-.24.3c-.2.43-.69,1.44-.37,1.94a.25.25,0,0,1,0,.21c.27.4.51.67.89.54a5,5,0,0,0,.63-.27l.54-.23.06,0A2.58,2.58,0,0,0,46,254a2.24,2.24,0,0,0,.16-1.2,1.51,1.51,0,0,0-.22-.48,2.12,2.12,0,0,1-.29-.64,1.36,1.36,0,0,0-.08-.28,2.46,2.46,0,0,1-.18-1,1,1,0,0,1,.34-.52c.13-.11.19-.16.21-.32a1.2,1.2,0,0,0-.28-.81,1.59,1.59,0,0,1-.13-.22c-.25-.42-.24-.65,0-.93,0-.05.1-.1.15-.17s.1-.19,0-.42a2.23,2.23,0,0,1-.12-.31,1.37,1.37,0,0,1,0-.67.87.87,0,0,0,0-.38.79.79,0,0,0-.39-.44A1.22,1.22,0,0,1,45,245a.92.92,0,0,1-.14-.14.91.91,0,0,0-.22-.22v0a.24.24,0,0,1,0,.09,4,4,0,0,0,.17.9c0,.14.09.29.12.44l.05.16c.11.32.26.75,0,1s-.57,0-.74-.2-.22-.23-.29-.24l-.07.06a1.14,1.14,0,0,0-.11.4,1.28,1.28,0,0,1-.21.62.41.41,0,0,1-.66,0l-.14-.09a1.85,1.85,0,0,0-.73-.07c-.14,0-.19.28-.25.59l0,.12c-.07.37-.06.39.24.48l.22.06c.29.09.58.17.87.23a.15.15,0,0,1,.12.1.26.26,0,0,1,0,.19,3.1,3.1,0,0,1-.59,1.08,2,2,0,0,0-.46.93.57.57,0,0,0,.21.36c.3.25.61.32.83.17a1.05,1.05,0,0,0,.34-.88,2,2,0,0,0,0-.22,1.25,1.25,0,0,1,.11-.85.44.44,0,0,1,.3-.19C44.13,249.91,44.3,250,44.49,250.23Z"/><path class="cls-5" d="M48,237.51a.17.17,0,0,1-.18,0s-.05-.06-.08-.11a2.87,2.87,0,0,1-.55.05c-.62,0-1.41,0-1.59.62,0,.08,0,.11,0,.22a.78.78,0,0,1,0,.78c-.11.23-.21.44-.33.65a8.89,8.89,0,0,0-.46,1c-.06.17-.12.33-.19.49a4.16,4.16,0,0,0-.32,1,3.36,3.36,0,0,1,1,.7l0,0a3.47,3.47,0,0,1,.32.34l.07.12A2.08,2.08,0,0,0,46,243a1.64,1.64,0,0,1,.22-.39,2.33,2.33,0,0,1,.47-.52.88.88,0,0,1,.74-.06l.23,0a2.12,2.12,0,0,0,.61,0l-.1-.12a1.45,1.45,0,0,1-.17-.19,2,2,0,0,1-.26-.73,2.19,2.19,0,0,1,.07-1.46,1.61,1.61,0,0,1,.57-.47c.19-.11.53-.33.55-.46a.44.44,0,0,0-.13-.23l-.1-.11a3.17,3.17,0,0,1-.62-.86Z"/><path class="cls-5" d="M44.2,250.59c-.13-.15-.19-.18-.22-.18h0c-.06.07,0,.32,0,.46s0,.21,0,.29a2.2,2.2,0,0,1-.06.53,1.64,1.64,0,0,1,.21-.24,1,1,0,0,0,.26-.36A.72.72,0,0,0,44.2,250.59Z"/><path class="cls-5" d="M42.05,253.49a.34.34,0,0,0,.11-.29.84.84,0,0,0-.46-.68.24.24,0,0,0-.31.1.19.19,0,0,1-.11.07.62.62,0,0,0,.23.37l.15.18C41.87,253.52,42,253.58,42.05,253.49Z"/><path class="cls-5" d="M54.73,295.35a1.13,1.13,0,0,1-.1.51.64.64,0,0,0,.19.44,1.87,1.87,0,0,0,.4.27c.28,0,.57.09.86.12l.19,0h.11a1.73,1.73,0,0,0,.35-.92c.17-.91.29-1.86.41-2.76s.25-2,.44-3c0-.11.05-.24.08-.39.15-.68.39-1.82,0-2.14-.19-.16-.53-.11-.83-.08l-.2,0a7.39,7.39,0,0,1-1.56,0l-.24,0a7.79,7.79,0,0,0-2.55,0,3.63,3.63,0,0,0-.06,2.52l0,.26a2.22,2.22,0,0,1,0,1.44A1.59,1.59,0,0,1,52,292a.79.79,0,0,0-.22.38c-.08.55.81.93,1.54,1.24a3,3,0,0,1,1.32.8A1,1,0,0,1,54.73,295.35Z"/><path class="cls-5" d="M39.49,263.67c0-.13,0-.27,0-.41a3,3,0,0,0-.09-1.08.42.42,0,0,0-.24-.25.85.85,0,0,0-.69.21,1.37,1.37,0,0,0-.51,1.38,1.11,1.11,0,0,1-.06.74.69.69,0,0,1-.52.28,2.19,2.19,0,0,0-1.24.52,1.67,1.67,0,0,0-.26,1.38,1,1,0,0,1,.87.05.27.27,0,0,1,.11.19.94.94,0,0,1-.44.84,1,1,0,0,1-.72.19h0l0,0c.08.3.23.79.41.82h0c.18,0,.39-.26.57-.47l.24-.27a.18.18,0,0,1,.16-.05.2.2,0,0,1,.12.12l.05.1c.17.43.25.64.61.72.12,0,.22.07.34.1l.17.07a.36.36,0,0,0,.23,0h.1a2.67,2.67,0,0,0,.11-.92c0-.14-.21-.24-.38-.35a1.23,1.23,0,0,1-.49-.42,1.78,1.78,0,0,1,.15-1.82l.15-.31s0-.05,0-.07a.4.4,0,0,1,.07-.13v0a.2.2,0,0,1,.26-.16.25.25,0,0,1,.11.31l-.09.24c-.11.53-.09.79.19.93.94.46,1.15.41,1.18.39s.12-.19-.19-1.12l0-.14A5.59,5.59,0,0,1,39.49,263.67Z"/><path class="cls-5" d="M54.29,295.45l0-.09a.41.41,0,0,0-.07-.18,1.87,1.87,0,0,0-1.1-.89,2.77,2.77,0,0,1-.7-.18l-.09-.06a1.57,1.57,0,0,0-.24.21l-.19.17c-.38.27-.53.11-.69-.12l-.1-.13a1.72,1.72,0,0,1-.32-.65c0-.15-.08-.32-.12-.49l-.09-.35a2.35,2.35,0,0,1,0-1.15l0-.11a2.84,2.84,0,0,0,0-1,7.18,7.18,0,0,0-.14.85,5.68,5.68,0,0,1-.23,1.19c-.15.45-.36.57-.51.59-.46,0-.8-.71-.89-1s-.09-.23-.14-.34a5,5,0,0,0-.42-.94c-.09-.12-.26-.32-.33-.33a.73.73,0,0,0,0,.41,1.17,1.17,0,0,1-.3,1.24.93.93,0,0,1-.26.18c-.06,0-.21.13-.22.17a.25.25,0,0,1-.14.22.18.18,0,0,1-.21-.06,2.58,2.58,0,0,1-.23-1.26v-.17c0-.1,0-.21,0-.33a2,2,0,0,0,0-.56c0-.07-.12-.1-.26-.14a.85.85,0,0,1-.24-.08.83.83,0,0,1-.21-.16l-.13-.1a.16.16,0,0,1-.17.05h0a1.9,1.9,0,0,0-1.24-.07,3.65,3.65,0,0,1-.92.23c-.35,0-1.08.5-1.09.8,0,.07.24,0,.36,0,.33-.06.84-.14.92.43a1.08,1.08,0,0,1-.5,1,1.24,1.24,0,0,0-.23.24s0,.07.26.25.86.46,1.07.38c.05,0,.1-.13.16-.31l.12-.28c.1-.18.35-.62.57-.49s.15.42.13.52a2.07,2.07,0,0,1-.37.76,1.12,1.12,0,0,0-.26.49c0,.15.31.38.57.43a.21.21,0,0,0,.26-.07.59.59,0,0,0,.05-.13.85.85,0,0,1,.16-.35.34.34,0,0,1,.28-.1c.49.08,1.19,1.51,1.2,1.52l.12.27a1.2,1.2,0,0,0,.38.6c.14.08.25,0,.46-.13a1.17,1.17,0,0,1,.31-.17,1.29,1.29,0,0,1,1.06.14l.15.07a2,2,0,0,0,.77.12l.34,0s0,0,0,0a.9.9,0,0,1-.06-.46.22.22,0,0,1,.09-.16.17.17,0,0,1,.15-.05,1,1,0,0,0,.37,0,3,3,0,0,1,.42-.05,1.47,1.47,0,0,1,.63.21,1.46,1.46,0,0,0,.28.14l.17.06a1.65,1.65,0,0,1,.78.43c.06.07.12.12.17.19a.77.77,0,0,0,.31.26.41.41,0,0,1,.15.07.76.76,0,0,1,0-.31,1.36,1.36,0,0,1,.12-.5A1.84,1.84,0,0,1,54.29,295.45Z"/><path class="cls-5" d="M56.93,298.09a1.19,1.19,0,0,1-.08-.22.22.22,0,0,1-.12-.24l0-.05c0-.05,0-.09-.08-.15a.37.37,0,0,0-.29-.19.69.69,0,0,1-.33.12,1.22,1.22,0,0,1-.27,0,2.31,2.31,0,0,1-.75-.3l-.43-.07a1,1,0,0,1-.2-.05h0a.79.79,0,0,1,0,.49.25.25,0,0,1-.16.17,3.52,3.52,0,0,1-1.07.16H53a2.76,2.76,0,0,1-.76-.05,1.25,1.25,0,0,1-.31-.11l0,0a.3.3,0,0,0,0,.16,1.25,1.25,0,0,0,.86.65,2.26,2.26,0,0,1,1,.32c.24.16.46.29.69.42a.26.26,0,0,1,.1.27l.24,0a1,1,0,0,1,.71.37.82.82,0,0,1,.1.26.79.79,0,0,0,0,.09.91.91,0,0,0,.39.22l.16.06a1,1,0,0,1,.45.51,1.64,1.64,0,0,0,.16.26,2,2,0,0,0,1.12.53,3.83,3.83,0,0,0-.08-1.15c0-.18-.05-.33-.06-.45a3.07,3.07,0,0,0-.3-1.3l-.18-.22A1.39,1.39,0,0,1,56.93,298.09Z"/><path class="cls-5" d="M43.83,286.42a1.23,1.23,0,0,0-.87.26l-.14.08a2,2,0,0,1-1.42.53s-.09,0-.13,0a3.26,3.26,0,0,0-.52,0,.14.14,0,0,1-.12.09,2,2,0,0,0-.58.44l0,0,.25-.06a4.92,4.92,0,0,1,2.29-.17,1.78,1.78,0,0,0,1.83-.37,2.66,2.66,0,0,1,.24-.23,5.76,5.76,0,0,1,.44-.41l0-.05a.75.75,0,0,0,.14-.12,2.22,2.22,0,0,0-.85,0A3.73,3.73,0,0,1,43.83,286.42Z"/><path class="cls-5" d="M44.51,281.8c.08.05.11,0,.25,0l.16-.08.14-.06a1,1,0,0,0,.47-.34l.12-.16a1.2,1.2,0,0,1,.42-.45c0-.21,0-.43,0-.63s0-.62,0-.94a5.44,5.44,0,0,1,.2-1.05c.29-1.15.44-1.92-.2-2.13a1.28,1.28,0,0,0-.81.2,1.5,1.5,0,0,1-1.14.21c-.57-.21-.72-.79-.86-1.36l0-.08a9.84,9.84,0,0,1-.22-1.36,3.2,3.2,0,0,0-.76-2.16.27.27,0,0,1-.06-.23.26.26,0,0,1,.12-.2,2.3,2.3,0,0,0,.77-.83l.09-.15a4.06,4.06,0,0,0,.32-.63,3.35,3.35,0,0,1,.43-.77A2.22,2.22,0,0,1,45.7,268a3.41,3.41,0,0,0,1-.11c.64-.23.9-.79,1.23-1.51.09-.18.17-.37.27-.55a2,2,0,0,0,.21-1.12,6.19,6.19,0,0,1,0-.72,3.4,3.4,0,0,1,.88-2,1.72,1.72,0,0,1,.62-.31,1.09,1.09,0,0,0,.55-.32,1.36,1.36,0,0,0,0-.74c0-.07-.05-.13-.07-.19a1,1,0,0,1-.05-.82,1,1,0,0,1,.84-.59c0-.24.06-.47.09-.7s.05-.28.07-.42,0-.44.05-.66a9.42,9.42,0,0,1,.13-1.15.23.23,0,0,1,.22-.2,1,1,0,0,0,.18,0,2.2,2.2,0,0,1,0-.52,3.71,3.71,0,0,1,.33-.91c.07-.14.13-.28.18-.4a.29.29,0,0,1,.14-.15.23.23,0,0,1,.17.05c.14.15.22.1.24.1.27-.15.49-1.09.55-1.68,0-.42-.14-.5-.62-.61l-.31-.08c-.13-.05-.55-.22-.62-.51a.44.44,0,0,1,0-.34c.15-.27.45-.15.7,0a.26.26,0,0,0,.1,0,1.34,1.34,0,0,0,.81-.09l.29-.1.26-.06c.31-.07.82-.18.93-.43a.47.47,0,0,0,0-.35c-.2-.48-.47-.47-1-.38a2,2,0,0,1-.78,0,.82.82,0,0,1-.6-.47,2.52,2.52,0,0,1,.14-1.61l0-.12a2.16,2.16,0,0,0,0-1.1,3.09,3.09,0,0,1-.06-1.2.24.24,0,0,1,.18-.21c.2,0,.32-.1.37-.22a2.86,2.86,0,0,0-.62-1.81,1.42,1.42,0,0,0-.24-.26,1.23,1.23,0,0,1-.4-.48.85.85,0,0,1,.11-.77,1.24,1.24,0,0,0,.1-.2c0-.11.07-.22.11-.33a4.22,4.22,0,0,1,.48-1.13,1.16,1.16,0,0,1,.55-.49l.2-.11c.21-.13.25-.68.28-1.13,0-.2,0-.38,0-.54l0-.19a2.93,2.93,0,0,0,.06-1,4,4,0,0,1,.31-1.93,5.69,5.69,0,0,0,.3-1,2.86,2.86,0,0,0-.06-1.26c-.13-.65,0-.85.42-1.15s.76-.55.88-1.17A4.68,4.68,0,0,1,57,227.21a.64.64,0,0,0,.23-.51v-.17c0-.45.2-1.53.76-1.86a1,1,0,0,1,.72,0c.24.06.39.1.53,0a3.22,3.22,0,0,0,.45-1.33v-.08a3.7,3.7,0,0,0,0-1.05,6,6,0,0,1,0-.61,11.5,11.5,0,0,0-.27-2.16,6.84,6.84,0,0,1,.23-2.69l.07-.33c.13-.62.33-1.56.86-1.86a3.53,3.53,0,0,1,.81-.31,2.38,2.38,0,0,0,1-.53,2.68,2.68,0,0,0,.91-1.79,2.61,2.61,0,0,0-.09-.58,2.61,2.61,0,0,1-.07-1.07c.06-.33.13-.68.22-1a6.47,6.47,0,0,1,1.4-2.36,9.69,9.69,0,0,0,.94-1.31,3.28,3.28,0,0,0,.28-.78,7.26,7.26,0,0,1,.24-.7,2.94,2.94,0,0,0,.38-1.87,8.34,8.34,0,0,0-.4-1.42,1.39,1.39,0,0,0-.23-.41,1.22,1.22,0,0,1-.22-1,4.72,4.72,0,0,0-.06-1.76,4,4,0,0,1,0-1.34,5.3,5.3,0,0,0,0-.8,1.62,1.62,0,0,0-.27-.75l-.18-.35a4,4,0,0,1-.08-1.82c0-.14,0-.28,0-.4a.73.73,0,0,1,.7-.76.79.79,0,0,0,.25-.05,2.26,2.26,0,0,0,1.07-1.86c0-.07,0-.17,0-.27a1.4,1.4,0,0,1,.15-.86c.27-.36.67-.19.93-.08l.14.07a.36.36,0,0,0,.39,0,1.41,1.41,0,0,0,0-1c0-.11,0-.2-.07-.3a2.16,2.16,0,0,1-.12-.66,3.73,3.73,0,0,1,.09-.67c0-.17.06-.34.08-.5v-.44A2.71,2.71,0,0,1,69,183.7a2.87,2.87,0,0,1,.47-.76l.1-.13a2.8,2.8,0,0,0,.37-.8,5,5,0,0,1,.35-.8c.32-.51.66-1,1.13-1.71a7.14,7.14,0,0,0,.41-.65,4.07,4.07,0,0,1,1-1.31A4.62,4.62,0,0,0,74,176.06c0-.08.1-.21.15-.34.19-.45.43-1,.79-1.06a2,2,0,0,1,.73.05,2.46,2.46,0,0,0,.71,0,.51.51,0,0,0,.22-.08,3.56,3.56,0,0,0-.09-.37l-.07-.23a3,3,0,0,0-.29-.81l-.08-.16a1.18,1.18,0,0,1-.2-1,3.79,3.79,0,0,1,.2-.7,5.39,5.39,0,0,0,.17-.59,2.23,2.23,0,0,0,0-.73,4.75,4.75,0,0,1,0-.54,4.34,4.34,0,0,1,.29-1.34l.07-.23c.09-.26.21-.52.33-.78a1.91,1.91,0,0,0,.34-1.46,1.31,1.31,0,0,0-.1-.21,1.43,1.43,0,0,1-.24-1,1.1,1.1,0,0,1,.74-.65l.14-.06c1-.48,1.78-.87,2.57-1.24l.53-.26.33-.16c.31-.15.44-.41.64-.8l0-.1.45-.84a11.6,11.6,0,0,0,.8-1.62,2.35,2.35,0,0,0,.1-1,3.38,3.38,0,0,1,.06-.93,1,1,0,0,1-.59,0,1.89,1.89,0,0,0-.79-.05,2.13,2.13,0,0,1-.87-.06c-.68-.26-.57-1.09-.48-1.69l0-.39a5.33,5.33,0,0,0,0-1.82,6.61,6.61,0,0,0-.22-.76,4.4,4.4,0,0,1-.31-1.34,4.69,4.69,0,0,1,.06-.91,2.89,2.89,0,0,0,0-1.17,2,2,0,0,0-.32-.52,1.74,1.74,0,0,1-.43-.86,4.32,4.32,0,0,1,.16-1.75c.06-.24.11-.48.15-.71a3.82,3.82,0,0,0-.26-1.83.28.28,0,0,1,0-.25.18.18,0,0,1,.18-.1h0a1.06,1.06,0,0,0,.87-.36.89.89,0,0,0,.23-.49,4.83,4.83,0,0,1-.69-1.18c-.12-.25-.22-.48-.31-.63a4.05,4.05,0,0,1-.24-2.64,8.37,8.37,0,0,0,.1-1.29,2.07,2.07,0,0,0-.42-1.08l-.19-.32a6.88,6.88,0,0,1-.63-1.43l0,0-.11,0c-.29-.08-.44-.07-.55.1a.82.82,0,0,0-.12.3l-.06.2a3.52,3.52,0,0,1-.27.55c0,.09-.09.16-.13.25a2.53,2.53,0,0,0-.17.51,2.27,2.27,0,0,1-.3.78c-.21.29-.52.17-.75.09a.88.88,0,0,0-.27-.08,1.39,1.39,0,0,0-.68.29s0,.12,0,.17l.06.51a5.17,5.17,0,0,1,.07.55,11.88,11.88,0,0,1,0,2.15c0,.25-.06.52-.08.78a11.49,11.49,0,0,1-.74,3.7,6.26,6.26,0,0,1-.44.74,4.18,4.18,0,0,0-.55,1,1,1,0,0,0,0,.17l.07.09.1.16a3.15,3.15,0,0,1,.42,1.31c.05.33.08.66.11,1s.09.86.16,1.28a3,3,0,0,1-.55,2.05l-.3.5a15.4,15.4,0,0,0-.85,1.54l0,.08a1.39,1.39,0,0,0-.18.64.82.82,0,0,0,.07.29,1.36,1.36,0,0,1,0,.71.23.23,0,0,1-.16.18,1.51,1.51,0,0,0-1.13,1.4,2.42,2.42,0,0,0,.15,1.07,3.52,3.52,0,0,1,.18.88,5.57,5.57,0,0,1-.68,2.4c-.12.24-.25.49-.37.75s-.35.73-.54,1a.87.87,0,0,0-.12.88,3.19,3.19,0,0,1,.09.41,6,6,0,0,1-.24,3c-.26.74-.57,1.46-.87,2.17l-.13.31a7.6,7.6,0,0,0-.39,1.35c0,.17-.08.34-.13.52a14.47,14.47,0,0,1-.87,2.32c-.19.42-.38.86-.55,1.31a8.73,8.73,0,0,0-.46,2.2l0,.15a2.78,2.78,0,0,1-.19.88,2,2,0,0,1-.39.52l-.2.22a2.16,2.16,0,0,0-.22.36,2.9,2.9,0,0,1-.34.52c-.11.12-.25.24-.38.36a1.93,1.93,0,0,0-.53.58,4,4,0,0,0-.24,2.12v.12c0,.3,0,.36.17.48a.41.41,0,0,0,.11.07.5.5,0,0,1,.35.4,4.64,4.64,0,0,1-.81,2.92,2.4,2.4,0,0,1-.52.45,1.69,1.69,0,0,0-.48.44,6.22,6.22,0,0,0-.59,2.06,5.23,5.23,0,0,0,.12,1.74c0,.28.1.56.14.87a4.94,4.94,0,0,1-.58,2.47c-.09.22-.19.44-.26.65a4.15,4.15,0,0,0-.22,1.24c0,.23,0,.45-.07.69a3.49,3.49,0,0,1-.75,1.53L60,200c-.15.23-.15.23-.1.55l0,.16a2.13,2.13,0,0,1-.19,1.38,4.64,4.64,0,0,0-.22.66,5.92,5.92,0,0,1-.47,1.15,1.21,1.21,0,0,1-.43.4.71.71,0,0,0-.22.2,1.94,1.94,0,0,0-.13.77c0,.18,0,.34,0,.46-.07.41-.18.82-.28,1.21,0,.19-.09.38-.13.57a3.37,3.37,0,0,1-.74,1.59,1.92,1.92,0,0,1-.32.26,1.05,1.05,0,0,0-.34.32,2.43,2.43,0,0,0-.14.28,2,2,0,0,1-.25.47,4.92,4.92,0,0,1-.47.54,3.49,3.49,0,0,0-.62.81c-.56,1.09-1,2-1.33,2.81a.21.21,0,0,1-.17.14.34.34,0,0,1-.23,0,5.31,5.31,0,0,1-1,1.79,4.16,4.16,0,0,1-.86.66.56.56,0,0,1-.71-.21,9.42,9.42,0,0,0-.08,2.79,1.63,1.63,0,0,0,.11.42,2.59,2.59,0,0,1,.14.58,3.25,3.25,0,0,1-.08.83l0,.22c0,.13-.06.27-.09.41a2.94,2.94,0,0,0-.1.79,1.63,1.63,0,0,0,.17.48l.12.28a4.19,4.19,0,0,1,.28,2.13,6.09,6.09,0,0,1-1.28,3.21,18.17,18.17,0,0,0-1.88,3.06,2.38,2.38,0,0,0-.32,1.07,2.52,2.52,0,0,1-.18.73,2.43,2.43,0,0,0-.14.49,1.65,1.65,0,0,0,.26.75,4.39,4.39,0,0,1,.2.47,8.67,8.67,0,0,1,.27,1.09s0,.05,0,.07l0-.07a2.66,2.66,0,0,1,.24-.38.65.65,0,0,1,.28-.21l.09,0,.18-.11a1.11,1.11,0,0,1,.81-.25,3.37,3.37,0,0,1,1.16.38,3.49,3.49,0,0,1,.32.25c.28.25.47.4.75.28a1,1,0,0,0,.36-.36,2,2,0,0,1,.42-.45.17.17,0,0,1,.21,0,.31.31,0,0,1,.07.25,2.4,2.4,0,0,1-1.09,1.27c-.14.1-.26.18-.35.26-.25.21-.25.37-.25.71,0,.15,0,.31,0,.5a2.36,2.36,0,0,1-.36.9,2.75,2.75,0,0,0-.23.49,5.24,5.24,0,0,0-.2,1.1c0,.13,0,.25,0,.37s0,.17-.05.29a6.15,6.15,0,0,0-.11,1,.23.23,0,0,1,.14.29s0,0,0,0a.28.28,0,0,1,0,.22.2.2,0,0,1-.2.12.11.11,0,0,1-.07,0s-.06-.1-.09-.14a2.07,2.07,0,0,0-1.12.4.46.46,0,0,0-.17.21,1.29,1.29,0,0,0,.08.77c.06.09.11.14.19.15a1,1,0,0,0,.24,0,.57.57,0,0,1,.65.2.24.24,0,0,1,0,.19c-.1.89-.42,1-1,1.19l-.39.08a3.73,3.73,0,0,0-.82.26,2.28,2.28,0,0,1,.62,1.53c0,.66-.5,1-.88,1.19l-.09.06-.18.09c-.13.07-.51.26-.55.38a1.74,1.74,0,0,0,.5.38.42.42,0,0,0,.31-.11,1.38,1.38,0,0,1,.24-.14c.1,0,.23-.07.37-.11s.5-.11.56-.24a.72.72,0,0,0,0-.28,1.07,1.07,0,0,1,.15-.69,1.24,1.24,0,0,1,.71-.44l.15-.06a.16.16,0,0,1,.19.06.25.25,0,0,1,0,.24,6.52,6.52,0,0,0-.09.71,4,4,0,0,1-.13.91,1.34,1.34,0,0,1-.9.79,1.35,1.35,0,0,0-.32.15,1.64,1.64,0,0,0-.93,1.37,2.51,2.51,0,0,0,0,.31,1,1,0,0,1-.22,1,2.66,2.66,0,0,1-1.15.63l-.24.09-.51.22c-.22.1-.45.2-.67.28-.7.23-1.1-.4-1.37-.82s-.6-.45-1.21-.16l-.21.1-1.41.6c-.5.21-1,.41-1.51.64-.27.13-.55.26-.82.41l-.29.13a3.23,3.23,0,0,0-.62.3,3.54,3.54,0,0,0,1.19,1.16,1.59,1.59,0,0,0,.59-.12,1.72,1.72,0,0,1,.48-.13,1.41,1.41,0,0,1,1.12.27c.29.24.68.61,1.07,1h0a.52.52,0,0,1,.55.2.64.64,0,0,1,0,.55.56.56,0,0,1-.47.4s-.12,0-.14.06a.2.2,0,0,0,0,.08c.06.23.63.47.88.57l.23.11A2,2,0,0,1,44,262l.07.19a3,3,0,0,1,.24,1.72.24.24,0,0,1-.13.16c-.28.13-.65,0-1-.16a2.06,2.06,0,0,0-.47-.15l-.32-.06a7.55,7.55,0,0,1-.85-.13.22.22,0,0,1-.13-.12l-.15-.42c-.06-.2-.12-.41-.21-.45s-.14,0-.24.09a1.56,1.56,0,0,0-.5,1.32,5.31,5.31,0,0,0,1.09,2.27c.17.28.36.53.51.8.65,1.11.33,2.5-.84,3.71l-.28.22a.7.7,0,0,0-.29.23,1,1,0,0,0,0,.2.83.83,0,0,1-.12.57c-.18.23-.54.27-1.06.3a3.09,3.09,0,0,0-.45.06l-.13,0c-.55.16-.69.28-.66.55a1.78,1.78,0,0,0,.6,1,.39.39,0,0,0,.13.06.69.69,0,0,1,.35.29.86.86,0,0,1,0,.57s0,0,0,0a.18.18,0,0,1,.17-.1h.06c.51.07.58,1,.61,1.47a5.12,5.12,0,0,1,0,.67,3.22,3.22,0,0,0,.13,1.1,3,3,0,0,1,.13.76,3.3,3.3,0,0,0,.13.71l.06.18c.05.17.07.21.11.22a.35.35,0,0,1,.28,0,.41.41,0,0,1,.21.2l0,.05a1.66,1.66,0,0,0,.49.34,2.87,2.87,0,0,1,.5.33.23.23,0,0,1,.06.13.77.77,0,0,1,0,.15.28.28,0,0,1,0,.2.24.24,0,0,1-.14.09.93.93,0,0,0-.47.17.88.88,0,0,1-1,.08,1.57,1.57,0,0,1-.62-.81,2.09,2.09,0,0,0-.25-.47c-.28-.36-.46-.38-.92-.13-.24.14-.57.47-.56.73.08.08.48-.05.64-.1a1.32,1.32,0,0,1,.44-.1.92.92,0,0,1,.69.61.88.88,0,0,1,0,.73c-.25.51-.71.36-1.08.25s-.48-.15-.59-.05,0,.35.59,1.43l.08.15c.16.3.69.61.95.4a1.26,1.26,0,0,0,.33-.88.58.58,0,0,0-.17-.46.24.24,0,0,1-.08-.28.23.23,0,0,1,.21-.18,1,1,0,0,0,1-.34,2.06,2.06,0,0,1,1-.5l.21-.05a3.7,3.7,0,0,1,.55-.09l.45-.07.11,0,.26-.06h.06a.19.19,0,0,1,.18,0l0,0a.75.75,0,0,1,.25.25A.7.7,0,0,0,44.51,281.8Z"/><path class="cls-5" d="M40.92,248.91h-.05a.41.41,0,0,0-.23,0,1,1,0,0,0-.12.44s0,.08,0,.11h0l0,0,.08.07.17.16a1.78,1.78,0,0,0,.14-.83Z"/><path class="cls-5" d="M42.71,244.54c.17-.06.37-.44.47-.64a.3.3,0,0,0,.06-.23s-.07-.09-.19-.11h0a1.73,1.73,0,0,0-.72,0,.31.31,0,0,1-.11.09,1.7,1.7,0,0,0-.12.8A1,1,0,0,0,42.71,244.54Z"/><path class="cls-5" d="M55.29,284.76c0-.11-.2-.3-.69-.53a9.8,9.8,0,0,0-4.17-.81c-.77.91-2.17,0-3.11-.57l-.52-.32-.13-.06c-.54-.3-.64-.43-.6-1.21,0,.06-.09.08-.13.15a2.14,2.14,0,0,1-.13.19,1.47,1.47,0,0,1-.64.48l-.14.06-.13.07a.64.64,0,0,1-.41.08.64.64,0,0,1-.59.5.72.72,0,0,0-.27.07.91.91,0,0,0-.37.42l-.13.25c-.65,1.07-.92,1-1.7.79l-.12,0a1.7,1.7,0,0,0-.23,1.33c.09.19.27.23.54.14l.12,0a5.26,5.26,0,0,0,1-.41c.28-.22.3-.44.33-.84a3.28,3.28,0,0,1,0-.43.26.26,0,0,1,.09-.17.16.16,0,0,1,.16,0,7.18,7.18,0,0,0,.76.13c1.26.17,2.31.36,2.59.94s-.24,1.18-.65,1.66c-.13.17-.26.32-.33.43a1.91,1.91,0,0,0-.4,1.2.64.64,0,0,0,.39.45c.6.28,1.15-.21,1.68-.69.09-.08.17-.17.26-.24,1.76-1.51,3.28-1.65,5.21-1.82.91-.08,2.31-.65,2.4-1.06a.08.08,0,0,1,0-.07Z"/><path class="cls-5" d="M41.07,289.94a1.64,1.64,0,0,0-1,.07.9.9,0,0,0,.5.33h0a1.53,1.53,0,0,0,.74,0,.14.14,0,0,0,0-.06A.49.49,0,0,0,41.07,289.94Z"/><path class="cls-5" d="M36.62,271.22a1.56,1.56,0,0,0,.23-.32.9.9,0,0,0,.17-.41.43.43,0,0,0-.17-.22.2.2,0,0,0-.17-.06c0,.12-.17.21-.26.17a.32.32,0,0,0-.12.22.8.8,0,0,0,.21.51C36.58,271.21,36.62,271.22,36.62,271.22Z"/><path class="cls-5" d="M37.21,282.38a.7.7,0,0,0,.15-.4c.11-.71-.07-.8-.6-1.07l-.08,0a.25.25,0,0,1-.12-.25l0-.09a7.58,7.58,0,0,1,.25-1.41,1.23,1.23,0,0,0-.29-1.29c-.58-.67-1-.92-1.1-.89a.48.48,0,0,1,0,.12c0,.13,0,.26-.07.38a1.85,1.85,0,0,0,0,1.3A3.51,3.51,0,0,1,36,281a1.06,1.06,0,0,0,.59,1.19C36.75,282.31,37.07,282.48,37.21,282.38Z"/><path class="cls-5" d="M37.06,283.73a1.42,1.42,0,0,0-.67-.17.43.43,0,0,1,0,.07l.29.14a1.23,1.23,0,0,1,.46.25,3.39,3.39,0,0,1,.2.28.75.75,0,0,0,.3.33,1,1,0,0,0,.35.09v0C37.89,284.34,37.33,283.88,37.06,283.73Z"/><path class="cls-5" d="M38.6,286.1a1.63,1.63,0,0,0-.37-.13.11.11,0,0,0-.08,0s-.07,0-.07.07a.21.21,0,0,0,0,.16.41.41,0,0,0,.42.16.81.81,0,0,0,.33-.14l-.07,0A.17.17,0,0,1,38.6,286.1Z"/><path class="cls-5" d="M36.58,273.49a.63.63,0,0,0-.21-.59.79.79,0,0,0-.42-.15v.08c-.06.34-.07.47,0,.53A1.78,1.78,0,0,0,36.58,273.49Z"/><text class="cls-6" transform="translate(23.33 109.63)"><tspan class="cls-7">P</tspan><tspan x="7.56" y="0">erú</tspan></text><text class="cls-6" transform="translate(17.47 158.06)">Iquique</text><text class="cls-6" transform="translate(0 193.31)">Santiago<tspan class="cls-8"><tspan x="0" y="7.2">Ae</tspan><tspan class="cls-9" x="7.31" y="7.2">r</tspan><tspan class="cls-10" x="9.41" y="7.2">opuer</tspan><tspan class="cls-11" x="25.75" y="7.2">t</tspan><tspan x="28.03" y="7.2">o</tspan></tspan></text><g id="ISj9bc"><path class="cls-12" d="M62.16,111.28l-.61-1a57.86,57.86,0,0,1-3.81-6.95,9.46,9.46,0,0,1-.86-2.6,5.39,5.39,0,0,1,9.34-4.4,5.59,5.59,0,0,1,1.29,3.32,6.32,6.32,0,0,1-.61,3,49.4,49.4,0,0,1-3.37,6.4L62.38,111Zm0-9.31a1.88,1.88,0,1,0-1.87-1.87A1.87,1.87,0,0,0,62.15,102Z"/></g><g id="ISj9bc-2" data-name="ISj9bc"><path class="cls-12" d="M71.37,161.52l-.61-1A57.73,57.73,0,0,1,67,153.62a9.57,9.57,0,0,1-.86-2.6,5.39,5.39,0,0,1,9.34-4.41,5.59,5.59,0,0,1,1.29,3.32,6.32,6.32,0,0,1-.61,3,50.18,50.18,0,0,1-3.37,6.41l-1.15,1.87Zm0-9.31a1.88,1.88,0,1,0-1.87-1.87A1.88,1.88,0,0,0,71.36,152.21Z"/></g><g id="ISj9bc-3" data-name="ISj9bc"><path class="cls-12" d="M62.93,196.46c-.22-.36-.42-.66-.61-1a58.51,58.51,0,0,1-3.81-6.94,9.57,9.57,0,0,1-.86-2.6A5.4,5.4,0,0,1,67,181.55a5.65,5.65,0,0,1,1.28,3.32,6.2,6.2,0,0,1-.61,3,50.18,50.18,0,0,1-3.37,6.41c-.38.62-.77,1.24-1.15,1.87Zm0-9.31a1.88,1.88,0,1,0-1.87-1.87A1.88,1.88,0,0,0,62.92,187.15Z"/></g></g></g></svg>